# Blender v3.5.0 OBJ File: 'ç„¡é¡Œ.blend'
# www.blender.org
mtllib decoration2B.mtl
o å¹³é¢.002
v 0.000000 0.506367 0.179910
v 0.000000 -0.439815 -0.102076
v 0.000000 0.145888 1.091749
v -0.000000 -0.452100 0.876563
v 0.000000 -0.013888 -0.180757
v 0.000000 -0.086130 1.059139
v 0.000000 0.382534 0.734488
v 0.000000 -0.684202 0.574087
v 0.000000 -0.433431 0.344580
v 0.000000 0.206030 0.561657
v 0.000000 0.339733 0.201025
v 0.000000 -0.445528 0.006789
v 0.000000 0.054285 0.753130
v 0.000000 0.354515 -0.143831
v 0.000000 -0.300182 -0.209071
v 0.000000 -0.216838 0.561164
v 0.158843 0.506367 0.179910
v 0.158843 -0.439815 -0.102076
v 0.158843 0.145888 1.091749
v 0.158843 -0.452100 0.876563
v 0.158843 -0.013888 -0.180757
v 0.158843 -0.086130 1.059139
v 0.158843 0.382534 0.734488
v 0.158843 -0.684202 0.574087
v 0.158843 -0.433431 0.344580
v 0.158843 0.206030 0.561657
v 0.158843 0.339733 0.201025
v 0.158843 -0.445528 0.006789
v 0.158843 0.054285 0.753130
v 0.158843 0.354515 -0.143831
v 0.158843 -0.300182 -0.209071
v 0.158843 -0.216838 0.561164
v 0.000000 -0.230120 0.438421
v 0.000000 -0.354730 0.591744
v 0.000000 -0.333813 0.185984
v 0.000000 -0.328614 -0.113416
v 0.000000 0.252919 0.464274
v 0.000000 0.231635 0.127351
v 0.000000 0.106441 0.677346
v 0.000000 0.044797 0.490361
v 0.000000 0.153398 0.366825
v 0.000000 0.014320 -0.098979
v 0.000000 -0.053571 0.673073
v 0.000000 0.325591 0.115446
v 0.000000 0.239969 -0.067094
v 0.000000 -0.346272 -0.057764
v 0.000000 -0.455444 -0.023241
v 0.000000 -0.497406 0.304945
v 0.000000 -0.139716 0.327187
v 0.158843 -0.328614 -0.113416
v 0.158843 -0.333813 0.185984
v 0.158843 -0.230120 0.438421
v 0.158843 -0.354730 0.591744
v 0.158843 0.252919 0.464274
v 0.158843 0.106441 0.677346
v 0.158843 0.014320 -0.098979
v 0.158843 0.231635 0.127351
v 0.158843 0.153398 0.366825
v 0.158843 0.044797 0.490361
v 0.158843 -0.053571 0.673073
v 0.158843 0.325591 0.115446
v 0.158843 0.239969 -0.067094
v 0.158843 -0.346272 -0.057764
v 0.158843 -0.455444 -0.023241
v 0.158843 -0.497406 0.304945
v 0.158843 -0.139716 0.327187
v -0.161260 0.600570 0.225454
v -0.161260 -0.652798 0.048076
v -0.161260 0.169977 1.395834
v -0.161260 -0.531075 1.109999
v -0.161260 0.102231 -0.243163
v -0.161260 -0.117105 1.324295
v -0.161260 0.438258 0.867311
v -0.161260 -0.802744 0.752646
v -0.161260 -0.505024 0.518222
v -0.161260 0.224427 0.701417
v -0.161259 0.394712 0.284140
v -0.161260 -0.535430 0.091080
v -0.161260 0.039151 0.865753
v -0.161260 0.396809 -0.219951
v -0.161260 -0.296148 -0.264287
v -0.161260 -0.246262 0.748785
v -0.002416 0.600570 0.225454
v -0.002416 -0.652798 0.048076
v -0.002416 0.169977 1.395834
v -0.002417 -0.531075 1.109999
v -0.002416 0.102231 -0.243163
v -0.002417 -0.117105 1.324295
v -0.002416 0.438258 0.867311
v -0.002417 -0.802744 0.752646
v -0.002417 -0.505024 0.518222
v -0.002416 0.224427 0.701417
v -0.002416 0.394712 0.284140
v -0.002417 -0.535430 0.091080
v -0.002416 0.039151 0.865753
v -0.002416 0.396809 -0.219951
v -0.002416 -0.296148 -0.264287
v -0.002417 -0.246262 0.748785
vt 0.896391 0.933198
vt 1.000000 1.000000
vt 0.750000 1.000000
vt 0.301203 0.750000
vt 0.250000 0.830733
vt 0.250000 0.750000
vt 0.250000 1.000000
vt 0.486552 0.923576
vt 0.500000 1.000000
vt 0.328766 0.839579
vt 0.250000 0.949623
vt 0.250000 0.854693
vt 0.471172 0.373566
vt 0.471172 0.373566
vt 0.471172 0.401305
vt 0.250000 0.250000
vt 0.325176 0.313679
vt 0.262035 0.439249
vt 1.000000 0.250000
vt 1.000000 0.500000
vt 0.801658 0.500000
vt 0.943140 0.599149
vt 0.813195 0.550825
vt 0.951198 0.201198
vt 0.750000 0.000000
vt 0.000000 0.250000
vt 0.000000 0.000000
vt 0.084738 0.750000
vt 0.000000 0.750000
vt 0.000000 0.500000
vt 0.072879 0.750000
vt 0.500000 0.915554
vt 0.750000 0.772737
vt 0.500000 0.765493
vt 0.500000 0.750000
vt 0.550331 0.466853
vt 0.569033 0.458319
vt 0.550331 0.461763
vt 0.559644 0.458311
vt 0.495630 0.436152
vt 0.559644 0.447997
vt 0.486456 0.460417
vt 0.496519 0.446359
vt 0.559644 0.461372
vt 0.518394 0.456065
vt 0.486456 0.461582
vt 0.486456 0.466853
vt 0.545323 0.448958
vt 0.535481 0.423168
vt 0.492108 0.426363
vt 0.548505 0.462393
vt 0.539671 0.462393
vt 0.512600 0.471745
vt 0.582269 0.434915
vt 0.526191 0.463371
vt 0.576245 0.428891
vt 0.503249 0.417137
vt 0.536924 0.439617
vt 0.500067 0.448958
vt 0.500067 0.403702
vt 0.502459 0.442594
vt 0.499553 0.432625
vt 0.499553 0.442594
vt 0.499553 0.452563
vt 0.518394 0.434915
vt 0.518394 0.436894
vt 0.547941 0.437089
vt 0.518394 0.466853
vt 0.557184 0.422346
vt 0.516818 0.368343
vt 0.538491 0.393113
vt 0.563026 0.388077
vt 0.563026 0.388077
vt 0.463150 0.382792
vt 0.515604 0.457101
vt 0.557184 0.392778
vt 0.557184 0.392778
vt 0.557184 0.402634
vt 0.557184 0.402634
vt 0.536608 0.457101
vt 0.536608 0.457101
vt 0.471172 0.484842
vt 0.471172 0.447750
vt 0.471172 0.484842
vt 0.484824 0.377632
vt 0.463150 0.382792
vt 0.471172 0.373566
vt 0.471172 0.410658
vt 0.471172 0.410658
vt 0.529607 0.457101
vt 0.522605 0.457101
vt 0.522605 0.457101
vt 0.484824 0.377632
vt 0.616928 0.377632
vt 0.557184 0.422346
vt 0.557184 0.412490
vt 0.471172 0.447750
vt 0.515604 0.457101
vt 0.557184 0.412490
vt 0.471172 0.373566
vt 0.529607 0.457101
vt 0.563026 0.388077
vt 0.463150 0.382792
vt 0.463150 0.382792
vt 0.557184 0.392778
vt 0.515604 0.457101
vt 0.515604 0.457101
vt 0.557184 0.397265
vt 0.557184 0.392778
vt 0.557184 0.402634
vt 0.474212 0.484842
vt 0.471172 0.484842
vt 0.536608 0.457101
vt 0.471172 0.447750
vt 0.471172 0.447750
vt 0.471172 0.480605
vt 0.554212 0.382792
vt 0.484824 0.377632
vt 0.471172 0.422854
vt 0.471172 0.410658
vt 0.528944 0.457101
vt 0.529607 0.457101
vt 0.522605 0.457101
vt 0.484824 0.377632
vt 0.616928 0.377632
vt 0.616928 0.377632
vt 0.557184 0.422346
vt 0.557184 0.415492
vt 0.557184 0.412490
vt 0.519662 0.457101
vt 0.519662 0.457101
vt 0.557184 0.412490
vt 0.557184 0.402634
vt 0.563026 0.388077
vt 0.471172 0.359483
vt 0.536608 0.457101
vt 0.074477 0.078641
vt 0.074477 0.092055
vt 0.061063 0.092055
vt 0.101305 0.078641
vt 0.101305 0.092055
vt 0.087891 0.092055
vt 0.101305 0.118883
vt 0.087891 0.118883
vt 0.101305 0.105469
vt 0.074477 0.105469
vt 0.061063 0.118883
vt 0.061063 0.105469
vt 0.074477 0.132297
vt 0.061063 0.132297
vt 0.114718 0.132297
vt 0.114718 0.118883
vt 0.114718 0.105469
vt 0.114718 0.092055
vt 0.061063 0.092055
vt 0.074477 0.092055
vt 0.074477 0.078641
vt 0.087891 0.092055
vt 0.101305 0.092055
vt 0.101305 0.078641
vt 0.101305 0.118883
vt 0.101305 0.105469
vt 0.087891 0.105469
vt 0.074477 0.118883
vt 0.061063 0.105469
vt 0.061063 0.118883
vt 0.074477 0.105469
vt 0.074477 0.132297
vt 0.061063 0.132297
vt 0.114718 0.132297
vt 0.114718 0.118883
vt 0.114718 0.105469
vt 0.114718 0.092055
vt 0.114718 0.078641
vt 0.087891 0.078641
vt 0.061063 0.078641
vt 0.114718 0.078641
vt 0.074409 0.033809
vt 0.055807 0.079183
vt 0.055807 0.079183
vt 0.087891 0.078641
vt 0.074477 0.118883
vt 0.087891 0.118883
vt 0.061063 0.078641
vt 0.557184 0.422346
vt 0.560321 0.422346
vt 0.750000 0.960160
vt 1.000000 0.750000
vt 0.846483 0.810732
vt 0.397684 0.884497
vt 0.250000 0.958745
vt 0.471172 0.410658
vt 0.500000 0.250000
vt 0.441290 0.308710
vt 0.250000 0.500000
vt 0.301203 0.448797
vt 0.951198 0.298802
vt 0.952843 0.702843
vt 1.000000 0.000000
vt 0.917614 0.167614
vt 0.000000 1.000000
vt 0.624720 0.890284
vt 0.750000 0.750000
vt 0.576245 0.434915
vt 0.582269 0.466853
vt 0.505323 0.452097
vt 0.533302 0.431987
vt 0.487769 0.446483
vt 0.523756 0.446483
vt 0.513128 0.446483
vt 0.536484 0.445422
vt 0.500579 0.445422
vt 0.533591 0.447479
vt 0.548505 0.417137
vt 0.550331 0.434915
vt 0.534327 0.452836
vt 0.616928 0.377632
vt 0.471172 0.484842
vt 0.522605 0.457101
vt 0.490056 0.377632
vt 0.557184 0.418889
vt 0.529607 0.457101
vt 0.074409 0.033809
vt 0.538491 0.393113
vn -1.0000 0.0000 -0.0000
vn 0.0000 -0.9980 0.0630
vn 1.0000 0.0000 0.0000
vn 0.0000 -0.6082 -0.7938
vn 0.0000 0.9054 -0.4247
vn 0.0000 -0.9994 -0.0351
vn 0.0000 0.6751 0.7377
vn 0.0000 -0.9653 0.2611
vn 0.0000 0.9936 0.1127
vn 0.0000 0.0997 -0.9950
vn 0.0000 0.9968 -0.0800
vn 0.0000 -0.9672 0.2539
vn 0.0000 0.0984 -0.9951
vn 0.0000 -0.9986 -0.0524
vn 0.0000 -0.6996 0.7145
vn 0.0000 0.8016 0.5979
vn -0.0000 -0.9217 -0.3878
vn 0.0000 0.1257 0.9921
vn -0.0000 0.9089 0.4170
vn 0.0000 -0.9054 0.4247
vn 0.0000 0.9987 0.0515
vn 0.0000 -0.5881 -0.8088
vn 0.0000 0.9497 -0.3131
vn 0.0000 -0.9888 -0.1495
vn -0.0000 -0.1399 0.9902
vn 0.0000 0.6996 -0.7145
vn 0.0000 0.9704 -0.2417
vn 0.0000 -0.0421 0.9991
vn 0.0000 -0.3015 -0.9535
vn 0.0000 -0.7760 -0.6307
vn 0.0000 0.9231 0.3846
vn 0.0000 -0.1257 -0.9921
vn 0.0000 -0.8805 -0.4740
vn 0.0000 -0.6589 -0.7523
vn 0.0000 0.9094 -0.4160
vn 0.0000 -0.9990 -0.0440
vn 0.0000 0.6186 0.7857
vn 0.0000 -0.9709 0.2396
vn 0.0000 0.9969 0.0782
vn 0.0000 0.0786 -0.9969
vn 0.0000 0.9972 -0.0745
vn 0.0000 -0.9757 0.2190
vn -0.0000 0.0530 -0.9986
vn 0.0000 -0.3440 0.9390
vn 0.0000 -0.6130 0.7901
vn 0.0000 0.7853 0.6192
vn 0.0000 -0.9272 -0.3746
vn 0.0000 0.2742 0.9617
vn 0.0000 0.9466 0.3226
vn 0.0000 0.5795 0.8150
usemtl Material
s off
f 34/1/1 4/2/1 16/3/1
f 38/4/1 37/5/1 11/6/1
f 13/7/1 43/8/1 6/9/1
f 41/10/1 39/11/1 37/12/1
f 38/13/2 57/14/2 54/15/2
f 14/16/1 45/17/1 44/18/1
f 12/19/1 8/20/1 46/21/1
f 8/20/1 48/22/1 46/23/1
f 47/24/3 15/25/3 12/19/3
f 11/26/1 1/27/1 14/16/1
f 37/28/1 10/29/1 7/30/1
f 39/11/1 10/29/1 37/31/1
f 43/32/1 16/3/1 6/9/1
f 36/33/1 42/34/1 5/35/1
f 32/36/3 53/37/3 52/38/3
f 54/39/3 57/40/3 27/41/3
f 55/42/3 58/43/3 54/44/3
f 60/45/3 55/46/3 29/47/3
f 30/48/3 61/49/3 62/50/3
f 28/51/3 64/52/3 63/53/3
f 25/54/3 65/55/3 51/56/3
f 31/57/1 64/58/1 28/51/1
f 27/59/3 30/48/3 17/60/3
f 54/61/3 27/41/3 23/62/3
f 55/46/3 26/63/3 19/64/3
f 21/65/3 56/66/3 50/67/3
f 32/36/3 60/45/3 22/68/3
f 2/69/4 15/70/4 31/71/4
f 1/72/5 17/73/5 30/74/5
f 4/75/6 9/76/6 25/77/6
f 9/76/7 8/78/7 24/79/7
f 13/80/8 29/81/8 19/82/8
f 10/83/9 3/84/9 19/82/9
f 5/85/10 14/86/10 30/74/10
f 11/87/11 7/88/11 23/89/11
f 6/90/12 16/91/12 32/92/12
f 5/85/13 21/93/13 31/94/13
f 2/69/14 18/95/14 28/96/14
f 7/88/15 10/83/15 26/97/15
f 16/91/16 4/75/16 20/98/16
f 8/78/17 12/99/17 28/96/17
f 1/72/18 11/87/18 27/100/18
f 13/80/19 6/90/19 22/101/19
f 44/102/20 45/103/20 62/104/20
f 35/105/21 34/106/21 53/107/21
f 35/108/22 51/109/22 65/110/22
f 39/111/23 55/112/23 59/113/23
f 41/114/24 58/115/24 55/116/24
f 45/103/25 42/117/25 56/118/25
f 41/114/26 37/119/26 54/120/26
f 43/121/27 60/122/27 66/123/27
f 42/124/28 36/125/28 50/126/28
f 47/127/29 46/128/29 63/129/29
f 33/130/30 52/131/30 53/107/30
f 46/132/31 48/133/31 65/110/31
f 44/102/32 61/134/32 57/135/32
f 40/136/33 59/113/33 60/122/33
f 82/137/1 81/138/1 75/139/1
f 79/140/1 77/141/1 71/142/1
f 80/143/1 71/144/1 77/145/1
f 81/146/1 78/147/1 74/148/1
f 81/146/1 74/148/1 75/139/1
f 81/149/1 68/150/1 78/147/1
f 67/151/1 80/143/1 77/152/1
f 73/153/1 77/141/1 76/154/1
f 76/154/1 77/141/1 79/140/1
f 71/142/1 81/138/1 82/137/1
f 91/155/3 97/156/3 98/157/3
f 87/158/3 93/159/3 95/160/3
f 96/161/3 93/162/3 87/163/3
f 97/164/3 90/165/3 94/166/3
f 97/167/3 91/155/3 90/165/3
f 97/168/3 94/166/3 84/169/3
f 83/170/3 93/171/3 96/161/3
f 89/172/3 92/173/3 93/159/3
f 92/173/3 85/174/3 95/160/3
f 87/158/3 88/175/3 98/157/3
f 68/150/34 81/149/34 97/168/34
f 80/143/35 67/151/35 83/170/35
f 70/176/36 75/139/36 91/155/36
f 75/139/37 74/148/37 90/165/37
f 69/177/38 79/140/38 95/160/38
f 76/178/39 69/179/39 85/180/39
f 71/144/40 80/143/40 96/161/40
f 77/152/41 73/153/41 89/172/41
f 72/181/42 82/137/42 98/157/42
f 81/182/43 71/144/43 87/183/43
f 68/150/44 84/169/44 94/166/44
f 73/153/45 76/154/45 92/173/45
f 82/137/46 70/176/46 86/184/46
f 74/148/47 78/147/47 94/166/47
f 67/151/48 77/152/48 93/171/48
f 79/140/49 72/181/49 88/175/49
f 47/127/50 64/185/50 50/186/50
f 34/1/1 16/3/1 33/187/1
f 4/2/1 34/1/1 9/188/1
f 9/188/1 34/1/1 35/189/1
f 40/190/1 43/8/1 39/191/1
f 39/191/1 43/8/1 13/7/1
f 38/13/2 54/15/2 37/192/2
f 45/17/1 5/193/1 42/194/1
f 11/195/1 44/18/1 38/196/1
f 45/17/1 14/16/1 5/193/1
f 14/16/1 44/18/1 11/195/1
f 12/19/1 46/21/1 47/197/1
f 35/198/1 48/22/1 9/188/1
f 9/188/1 48/22/1 8/20/1
f 12/19/1 15/25/1 2/199/1
f 15/25/1 47/24/1 36/200/1
f 37/28/1 7/30/1 11/6/1
f 10/29/1 39/11/1 3/201/1
f 3/201/1 39/11/1 13/7/1
f 33/187/1 16/3/1 49/202/1
f 49/202/1 16/3/1 43/32/1
f 36/33/1 5/35/1 15/203/1
f 51/204/3 53/37/3 25/54/3
f 25/54/3 53/37/3 20/205/3
f 20/205/3 53/37/3 32/36/3
f 55/46/3 60/45/3 59/206/3
f 60/45/3 29/47/3 22/68/3
f 61/49/3 27/207/3 57/208/3
f 30/48/3 62/50/3 21/209/3
f 21/209/3 62/50/3 56/210/3
f 61/49/3 30/48/3 27/207/3
f 28/51/3 63/53/3 24/211/3
f 65/55/3 24/211/3 63/212/3
f 24/211/3 65/55/3 25/54/3
f 64/58/3 31/57/3 50/213/3
f 31/57/3 28/51/3 18/214/3
f 54/61/3 23/62/3 26/63/3
f 55/46/3 19/64/3 29/47/3
f 26/63/3 55/46/3 54/44/3
f 21/65/3 50/67/3 31/215/3
f 60/45/3 32/36/3 66/216/3
f 66/216/3 32/36/3 52/38/3
f 2/69/4 31/71/4 18/95/4
f 1/72/5 30/74/5 14/86/5
f 4/75/6 25/77/6 20/98/6
f 9/76/7 24/79/7 25/77/7
f 13/80/8 19/82/8 3/84/8
f 10/83/9 19/82/9 26/97/9
f 5/85/10 30/74/10 21/93/10
f 11/87/11 23/89/11 27/100/11
f 6/90/12 32/92/12 22/101/12
f 5/85/13 31/94/13 15/217/13
f 2/69/14 28/96/14 12/99/14
f 7/88/15 26/97/15 23/89/15
f 16/91/16 20/98/16 32/92/16
f 8/78/17 28/96/17 24/79/17
f 1/72/18 27/100/18 17/73/18
f 13/80/19 22/101/19 29/81/19
f 44/102/20 62/104/20 61/134/20
f 35/105/21 53/107/21 51/109/21
f 35/108/22 65/110/22 48/133/22
f 39/111/23 59/113/23 40/136/23
f 41/114/24 55/116/24 39/218/24
f 45/103/25 56/118/25 62/104/25
f 41/114/26 54/120/26 58/115/26
f 43/121/27 66/123/27 49/219/27
f 42/124/28 50/126/28 56/220/28
f 47/127/29 63/129/29 64/221/29
f 52/131/30 49/219/30 66/123/30
f 33/130/30 53/107/30 34/106/30
f 52/131/30 33/130/30 49/219/30
f 46/132/31 65/110/31 63/129/31
f 44/102/32 57/135/32 38/13/32
f 40/136/33 60/122/33 43/222/33
f 82/137/1 75/139/1 70/176/1
f 79/140/1 71/142/1 72/181/1
f 76/154/1 79/140/1 69/177/1
f 71/142/1 82/137/1 72/181/1
f 91/155/3 98/157/3 86/184/3
f 87/158/3 95/160/3 88/175/3
f 92/173/3 95/160/3 93/159/3
f 87/158/3 98/157/3 97/156/3
f 68/150/34 97/168/34 84/169/34
f 80/143/35 83/170/35 96/161/35
f 70/176/36 91/155/36 86/184/36
f 75/139/37 90/165/37 91/155/37
f 69/177/38 95/160/38 85/174/38
f 76/178/39 85/180/39 92/223/39
f 71/144/40 96/161/40 87/183/40
f 77/152/41 89/172/41 93/171/41
f 72/181/42 98/157/42 88/175/42
f 81/182/43 87/183/43 97/164/43
f 68/150/44 94/166/44 78/147/44
f 73/153/45 92/173/45 89/172/45
f 82/137/46 86/184/46 98/157/46
f 74/148/47 94/166/47 90/165/47
f 67/151/48 93/171/48 83/170/48
f 79/140/49 88/175/49 95/160/49
f 47/127/50 50/186/50 36/224/50
