# Blender v3.5.0 OBJ File: ''
# www.blender.org
mtllib 1.mtl
o テキスト_1
v 0.179031 -0.331355 0.000000
v 0.135284 -0.274163 0.140070
v 0.179031 0.331355 0.000000
v 0.129359 0.265136 0.140070
v -0.179031 0.235410 0.000000
v -0.113267 0.207562 0.140070
v -0.134520 0.072206 0.000000
v -0.091931 0.129508 0.140070
v 0.001978 0.108803 0.000000
v 0.050921 0.164580 0.140070
v 0.001978 -0.331355 0.000000
v 0.050921 -0.274163 0.140070
v 0.179031 0.331355 0.079432
v 0.129359 0.265136 0.179118
v 0.148783 0.290364 0.136171
v -0.113267 0.207562 0.179118
v -0.179031 0.235410 0.079432
v 0.050921 0.164580 0.179118
v -0.145818 0.220831 0.136171
v 0.135284 -0.274163 0.179118
v 0.001978 0.108803 0.079432
v -0.091931 0.129508 0.179118
v 0.026383 0.142175 0.136171
v 0.050921 -0.274163 0.179118
v 0.179031 -0.331355 0.079432
v 0.150708 -0.303619 0.136171
v -0.134520 0.072206 0.079432
v -0.114374 0.105804 0.136171
v 0.001978 -0.331355 0.079432
v 0.026383 -0.303619 0.136171
v -0.142894 0.210135 0.079432
v -0.026279 0.128568 0.079432
v -0.145818 0.220831 0.079432
v 0.145873 0.289677 0.079432
v 0.026383 0.139479 0.079432
v 0.026383 0.142175 0.079432
v 0.026383 0.048132 0.079432
v 0.150568 -0.260596 0.079432
v 0.148783 0.290364 0.079432
v -0.114374 0.105804 0.079432
v 0.026383 -0.303619 0.079432
v 0.150708 -0.303619 0.079432
vt 0.137230 0.937500
vt 0.107002 0.937500
vt 0.197686 0.937500
vt 0.076774 0.937500
vt 0.167458 0.937500
vt 0.227914 0.937500
vt 0.137230 0.937500
vt 0.149299 0.937500
vt 0.144581 0.937500
vt 0.184020 0.937500
vt 0.197686 0.937500
vt 0.185186 0.937500
vt 0.181019 0.937500
vt 0.107002 0.937500
vt 0.123985 0.937500
vt 0.122359 0.937500
vt 0.188248 0.937500
vt 0.168639 0.937500
vt 0.099047 0.937500
vt 0.205176 0.937500
vt 0.227914 0.937500
vt 0.167458 0.937500
vt 0.076774 0.937500
vt 0.567717 0.203125
vt 0.546850 0.203125
vt 0.578150 0.203125
vt 0.588583 0.203125
vt 0.557283 0.203125
vt 0.536417 0.203125
vt 0.536417 0.203125
vt 0.588583 0.203125
vt 0.557283 0.203125
vt 0.550753 0.203125
vt 0.587828 0.203125
vt 0.578150 0.203125
vt 0.578047 0.203125
vt 0.546787 0.203125
vt 0.544649 0.203125
vt 0.567717 0.203125
vt 0.566746 0.203125
vt 0.171550 0.919922
vt 0.182618 0.919922
vt 0.149413 0.919922
vt 0.193687 0.919922
vt 0.160481 0.919922
vt 0.138344 0.919922
vt 0.171550 0.919922
vt 0.149413 0.919922
vt 0.182618 0.919922
vt 0.193687 0.919922
vt 0.160481 0.919922
vt 0.138344 0.919922
vt 0.096211 0.937500
vt 0.546850 0.203125
vn 0.0000 0.0000 -1.0000
vn -0.0000 0.0000 1.0000
vn 0.0000 -1.0000 0.0000
vn 0.2590 -0.9659 0.0000
vn 1.0000 -0.0000 0.0000
vn -0.2588 0.9659 0.0000
vn -1.0000 0.0000 0.0000
vn -0.9648 -0.2631 0.0000
vn 0.2502 -0.9682 0.0000
vn 1.0000 0.0032 0.0000
vn -0.2297 0.9733 0.0000
vn -0.9646 -0.2637 0.0000
vn 0.2384 -0.9712 0.0000
vn 0.9999 0.0110 0.0000
vn -0.2309 0.9730 0.0000
usemtl Material
s off
f 5/1/1 3/2/1 9/3/1
f 9/3/1 3/2/1 1/4/1
f 7/5/1 5/1/1 9/3/1
f 11/6/1 9/3/1 1/4/1
f 17/7/2 31/8/2 33/9/2
f 36/10/2 21/11/2 35/12/2
f 35/12/2 21/11/2 37/13/2
f 13/14/2 34/15/2 39/16/2
f 21/11/2 32/17/2 40/18/2
f 42/19/2 41/20/2 29/21/2
f 1/4/3 29/21/3 11/6/3
f 9/3/4 27/22/4 7/5/4
f 3/2/5 25/23/5 1/4/5
f 5/1/6 13/14/6 3/2/6
f 11/6/7 21/11/7 9/3/7
f 7/5/8 17/7/8 5/1/8
f 19/24/2 23/25/2 15/26/2
f 23/25/2 26/27/2 15/26/2
f 28/28/2 23/25/2 19/24/2
f 30/29/2 26/27/2 23/25/2
f 26/27/3 41/30/3 42/31/3
f 28/28/9 40/32/9 32/33/9
f 26/27/10 42/31/10 38/34/10
f 15/26/11 39/35/11 34/36/11
f 35/37/7 37/38/7 23/25/7
f 19/24/12 33/39/12 31/40/12
f 6/41/1 4/42/1 10/43/1
f 10/43/1 4/42/1 2/44/1
f 8/45/1 6/41/1 10/43/1
f 12/46/1 10/43/1 2/44/1
f 16/47/2 18/48/2 14/49/2
f 18/48/2 20/50/2 14/49/2
f 22/51/2 18/48/2 16/47/2
f 24/52/2 20/50/2 18/48/2
f 2/44/3 24/52/3 12/46/3
f 10/43/13 22/51/13 8/45/13
f 4/42/14 20/50/14 2/44/14
f 6/41/15 14/49/15 4/42/15
f 12/46/7 18/48/7 10/43/7
f 8/45/12 16/47/12 6/41/12
f 33/9/2 34/15/2 17/7/2
f 34/15/2 13/14/2 17/7/2
f 36/10/2 32/17/2 21/11/2
f 39/16/2 38/53/2 13/14/2
f 38/53/2 25/23/2 13/14/2
f 40/18/2 31/8/2 27/22/2
f 31/8/2 17/7/2 27/22/2
f 27/22/2 21/11/2 40/18/2
f 41/20/2 37/13/2 29/21/2
f 37/13/2 21/11/2 29/21/2
f 25/23/2 38/53/2 42/19/2
f 25/23/2 42/19/2 29/21/2
f 1/4/3 25/23/3 29/21/3
f 9/3/4 21/11/4 27/22/4
f 3/2/5 13/14/5 25/23/5
f 5/1/6 17/7/6 13/14/6
f 11/6/7 29/21/7 21/11/7
f 7/5/8 27/22/8 17/7/8
f 26/27/3 30/29/3 41/30/3
f 32/33/9 36/54/9 23/25/9
f 23/25/9 28/28/9 32/33/9
f 38/34/10 39/35/10 15/26/10
f 15/26/10 26/27/10 38/34/10
f 34/36/11 33/39/11 19/24/11
f 19/24/11 15/26/11 34/36/11
f 37/38/7 41/30/7 30/29/7
f 30/29/7 23/25/7 37/38/7
f 23/25/7 36/54/7 35/37/7
f 31/40/12 40/32/12 28/28/12
f 28/28/12 19/24/12 31/40/12
f 2/44/3 20/50/3 24/52/3
f 10/43/13 18/48/13 22/51/13
f 4/42/14 14/49/14 20/50/14
f 6/41/15 16/47/15 14/49/15
f 12/46/7 24/52/7 18/48/7
f 8/45/12 22/51/12 16/47/12
o テキスト.001_1.001
v 0.150708 -0.303619 0.078626
v 0.148783 0.290364 0.078626
v -0.145818 0.220831 0.078626
v -0.114374 0.105804 0.078626
v 0.026383 0.142175 0.078626
v 0.026383 -0.303619 0.078626
v 0.148783 0.290364 0.136171
v -0.145818 0.220831 0.136171
v 0.026383 0.142175 0.136171
v 0.150708 -0.303619 0.136171
v -0.114374 0.105804 0.136171
v 0.026383 -0.303619 0.136171
vt 0.567717 0.203125
vt 0.578150 0.203125
vt 0.546850 0.203125
vt 0.588583 0.203125
vt 0.557283 0.203125
vt 0.536417 0.203125
vt 0.567717 0.203125
vt 0.546850 0.203125
vt 0.578150 0.203125
vt 0.588583 0.203125
vt 0.557283 0.203125
vt 0.536417 0.203125
vn -0.0000 0.0000 -1.0000
vn 0.0000 0.0000 1.0000
vn 0.0000 -1.0000 0.0000
vn 0.2502 -0.9682 0.0000
vn 1.0000 0.0032 0.0000
vn -0.2297 0.9733 0.0000
vn -1.0000 0.0000 0.0000
vn -0.9646 -0.2637 0.0000
usemtl Material
s off
f 45/55/16 44/56/16 47/57/16
f 47/57/16 44/56/16 43/58/16
f 46/59/16 45/55/16 47/57/16
f 48/60/16 47/57/16 43/58/16
f 50/61/17 51/62/17 49/63/17
f 51/62/17 52/64/17 49/63/17
f 53/65/17 51/62/17 50/61/17
f 54/66/17 52/64/17 51/62/17
f 43/58/18 54/66/18 48/60/18
f 47/57/19 53/65/19 46/59/19
f 43/58/20 49/63/20 52/64/20
f 45/55/21 49/63/21 44/56/21
f 48/60/22 51/62/22 47/57/22
f 46/59/23 50/61/23 45/55/23
f 43/58/18 52/64/18 54/66/18
f 47/57/19 51/62/19 53/65/19
f 43/58/20 44/56/20 49/63/20
f 45/55/21 50/61/21 49/63/21
f 48/60/22 54/66/22 51/62/22
f 46/59/23 53/65/23 50/61/23
o テキスト.002_1.002
v 0.135284 -0.274163 0.140070
v 0.129359 0.265136 0.140070
v -0.113267 0.207562 0.140070
v -0.091931 0.129508 0.140070
v 0.050921 0.164580 0.140070
v 0.050921 -0.274163 0.140070
v 0.129359 0.265136 0.179118
v -0.113267 0.207562 0.179118
v 0.050921 0.164580 0.179118
v 0.135284 -0.274163 0.179118
v -0.091931 0.129508 0.179118
v 0.050921 -0.274163 0.179118
vt 0.171550 0.919922
vt 0.182618 0.919922
vt 0.149413 0.919922
vt 0.193687 0.919922
vt 0.160481 0.919922
vt 0.138344 0.919922
vt 0.171550 0.919922
vt 0.149413 0.919922
vt 0.182618 0.919922
vt 0.193687 0.919922
vt 0.160481 0.919922
vt 0.138344 0.919922
vn 0.0000 0.0000 -1.0000
vn 0.0000 0.0000 1.0000
vn 0.0000 -1.0000 0.0000
vn 0.2384 -0.9712 0.0000
vn 0.9999 0.0110 0.0000
vn -0.2309 0.9730 0.0000
vn -1.0000 0.0000 0.0000
vn -0.9646 -0.2637 0.0000
usemtl Material
s off
f 57/67/24 56/68/24 59/69/24
f 59/69/24 56/68/24 55/70/24
f 58/71/24 57/67/24 59/69/24
f 60/72/24 59/69/24 55/70/24
f 62/73/25 63/74/25 61/75/25
f 63/74/25 64/76/25 61/75/25
f 65/77/25 63/74/25 62/73/25
f 66/78/25 64/76/25 63/74/25
f 55/70/26 66/78/26 60/72/26
f 59/69/27 65/77/27 58/71/27
f 56/68/28 64/76/28 55/70/28
f 57/67/29 61/75/29 56/68/29
f 60/72/30 63/74/30 59/69/30
f 58/71/31 62/73/31 57/67/31
f 55/70/26 64/76/26 66/78/26
f 59/69/27 63/74/27 65/77/27
f 56/68/28 61/75/28 64/76/28
f 57/67/29 62/73/29 61/75/29
f 60/72/30 66/78/30 63/74/30
f 58/71/31 65/77/31 62/73/31
