# Blender v3.5.0 OBJ File: 'player.blend'
# www.blender.org
mtllib playerMouth.mtl
o 平面_平面.004
v -0.268444 -0.094286 1.105117
v -0.268444 -0.094286 -1.074427
v 1.023929 -0.415028 0.015345
v 0.686477 -0.980522 -0.218630
v 0.517335 -0.254047 0.923891
v 0.433050 -0.857304 0.684252
v 0.433050 -0.857304 -0.653563
v 0.517335 -0.254047 -0.893202
v 0.686477 -0.980522 0.249319
v 1.027782 -0.355632 0.515941
v 1.027782 -0.355632 -0.485252
v 0.066689 -0.595716 -0.860969
v 0.066689 -0.595716 0.891658
v 0.409968 -0.844168 0.694864
v 0.074111 -0.604734 0.883867
v 0.683334 -0.979696 0.265345
v 0.453410 -0.867762 0.667645
v 0.696285 -0.982703 -0.194655
v 0.696285 -0.982703 0.225345
v 0.453410 -0.867762 -0.636956
v 0.683334 -0.979696 -0.234655
v 0.079855 -0.608590 -0.859632
v 0.409968 -0.844168 -0.664175
v 0.523454 -0.255255 0.918358
v 0.506122 -0.252282 0.926965
v 1.021765 -0.414407 0.023870
v 1.019194 -0.353937 0.523706
v 1.030395 -0.356381 -0.474955
v 0.527106 -0.254126 -0.887971
v 0.506122 -0.252282 -0.896275
v 1.030052 -0.356283 0.506996
v 1.021264 -0.414263 0.004843
v 1.019058 -0.353910 -0.493140
v -0.518080 -1.462593 -0.498868
vt 0.079081 0.810024
vt 0.162109 0.833984
vt 0.128883 0.820918
vt 0.531007 0.459224
vt 0.658530 0.499339
vt 0.594769 0.481019
vt 0.115344 0.772009
vt 0.222656 0.773381
vt 0.222653 0.865935
vt 0.487546 0.639964
vt 0.499468 0.597541
vt 0.499485 0.597517
vt 0.092802 0.796615
vt 0.068849 0.779663
vt 0.237961 0.876648
vt 0.508698 0.402539
vt 0.640625 0.478329
vt 0.574661 0.442688
vt 0.499718 0.671678
vt 0.459851 0.609253
vt 0.458762 0.610178
vt 0.473229 0.589762
vt 0.519867 0.596993
vt 0.517052 0.596107
vt 0.162317 0.721313
vt 0.187760 0.864422
vt 0.136694 0.824393
vt 0.513029 0.540678
vt 0.378473 0.631213
vt 0.377436 0.578497
vt 0.551590 0.609677
vt 0.493497 0.568022
vt 0.493512 0.568431
vt 0.573978 0.346718
vt 0.617188 0.394531
vt 0.617188 0.398381
vt 0.601870 0.490271
vt 0.601811 0.494242
vt 0.611695 0.499322
vt 0.658530 0.417799
vt 0.658530 0.420947
vt 0.593750 0.472656
vt 0.413609 0.409476
vt 0.552442 0.407788
vt 0.533693 0.412475
vt 0.547959 0.682974
vt 0.489331 0.595457
vt 0.486871 0.614657
vt 0.544109 0.346009
vt 0.637195 0.462196
vt 0.588777 0.409443
vt 0.170622 0.681769
vt 0.171875 0.798641
vt 0.040860 0.720791
vt 0.201499 0.795947
vt 0.201499 0.874339
vt 0.073976 0.834224
vt 0.605923 0.454597
vt 0.453303 0.522641
vt 0.519744 0.490997
vt 0.548321 0.483844
vt 0.539062 0.507152
vt 0.539062 0.507812
vt 0.203125 0.722656
vt 0.212891 0.746094
vt 0.087063 0.807350
vt 0.123205 0.877425
vt 0.167138 0.864169
vt 0.168390 0.839030
vt 0.203943 0.820467
vt 0.217863 0.813499
vt 0.203548 0.809090
vt 0.093068 0.732029
vt 0.179758 0.761158
vt 0.157208 0.752205
vt 0.223675 0.804985
vt 0.209968 0.831342
vt 0.214184 0.819330
vt 0.368451 0.580951
vt 0.452482 0.605132
vt 0.369454 0.581171
vt 0.412801 0.649231
vt 0.457511 0.635316
vt 0.413577 0.648572
vt 0.494330 0.592044
vt 0.508236 0.584646
vt 0.494315 0.591615
vt 0.383031 0.553949
vt 0.472591 0.583982
vt 0.385902 0.554852
vt 0.514398 0.575617
vt 0.500341 0.602489
vt 0.514047 0.576132
vn 0.1562 -0.2967 -0.9421
vn 0.8546 -0.3521 -0.3817
vn 0.2263 -0.3879 0.8935
vn 0.4332 -0.3844 -0.8152
vn 0.6401 -0.5632 -0.5226
vn 0.8255 -0.5317 0.1893
vn 0.5596 -0.4247 0.7117
vn 0.8038 -0.5429 -0.2435
vn 0.2475 -0.3894 -0.8872
vn 0.1969 -0.3463 0.9172
vn 0.8733 -0.4169 0.2519
vn 0.2982 -0.4715 0.8299
vn 0.4963 -0.3172 0.8082
vn 0.8546 -0.3521 0.3817
vn 0.8255 -0.5317 -0.1893
vn 0.1952 -0.3855 -0.9018
vn 0.1952 -0.3855 0.9018
vn 0.6401 -0.5632 0.5226
vn 0.8661 -0.4999 0.0000
vn 0.4963 -0.3172 -0.8082
vn 0.0040 -0.0992 -0.9951
vn 0.1562 -0.2967 0.9421
vn 0.5304 -0.3752 0.7601
vn 0.8673 -0.4958 0.0448
vn 0.8674 -0.4957 -0.0433
vn 0.5318 -0.3775 -0.7580
vn 0.1969 -0.3463 -0.9172
vn 0.5822 -0.3691 0.7245
vn 0.8038 -0.5429 0.2434
vn 0.8733 -0.4169 -0.2519
vn 0.5596 -0.4247 -0.7117
usemtl Material
s off
f 30/1/1 12/2/1 2/3/1
f 3/4/2 18/5/2 4/6/2
f 5/7/3 15/8/3 14/9/3
f 7/10/4 8/11/4 29/12/4
f 11/13/5 21/14/5 20/15/5
f 10/16/6 16/17/6 9/18/6
f 6/19/7 10/20/7 27/21/7
f 4/22/8 11/23/8 28/24/8
f 8/25/9 23/26/9 22/27/9
f 13/28/10 5/29/10 25/30/10
f 9/31/11 3/32/11 26/33/11
f 5/34/12 13/35/12 15/36/12
f 6/37/13 17/38/13 10/39/13
f 9/40/14 19/41/14 3/42/14
f 11/43/15 4/44/15 21/45/15
f 8/46/16 7/47/16 23/48/16
f 5/49/17 14/50/17 6/51/17
f 17/52/18 16/53/18 10/54/18
f 19/55/19 18/56/19 3/57/19
f 11/58/20 20/59/20 7/60/20
f 8/61/21 22/62/21 12/63/21
f 1/64/22 13/65/22 25/66/22
f 24/67/23 6/68/23 27/69/23
f 31/70/24 9/71/24 26/72/24
f 32/73/25 4/74/25 28/75/25
f 33/76/26 7/77/26 29/78/26
f 8/79/27 12/80/27 30/81/27
f 5/82/28 6/83/28 24/84/28
f 10/85/29 9/86/29 31/87/29
f 3/88/30 4/89/30 32/90/30
f 11/91/31 7/92/31 33/93/31
