# Blender v3.5.0 OBJ File: 'player.blend'
# www.blender.org
mtllib float_R_Arm.mtl
o R_Arm_立方体.003
v 0.944651 -1.949063 0.711820
v 0.161863 -0.400023 0.404608
v 0.944651 -1.949063 -0.711820
v 0.161863 -0.400023 -0.404608
v 1.995843 -1.035972 0.711820
v 0.155536 0.434818 0.404608
v 1.995843 -1.035972 -0.711820
v 0.155536 0.434818 -0.404608
vt 0.703369 0.544906
vt 0.625159 0.426526
vt 0.724891 0.426526
vt 0.812972 0.470455
vt 0.880836 0.590243
vt 0.783414 0.590243
vt 0.724891 0.660373
vt 0.646680 0.825409
vt 0.625159 0.660373
vt 0.823791 0.192978
vt 0.891655 0.073190
vt 0.921213 0.192978
vt 0.426526 0.923523
vt 0.524069 0.823791
vt 0.524069 0.923523
vt 0.646680 0.544906
vt 0.703369 0.601849
vt 0.646680 0.601849
vt 0.851279 0.426526
vt 0.703369 0.825409
vt 0.853349 0.029262
vt 0.426526 0.823791
vn -0.8925 -0.4510 0.0000
vn -0.1178 0.1356 -0.9837
vn 0.6243 0.7812 0.0000
vn -0.1178 0.1356 0.9837
vn 0.6558 -0.7550 -0.0000
vn -1.0000 -0.0076 0.0000
vn -0.1656 -0.0013 -0.9862
vn -0.1656 -0.0013 0.9862
usemtl マテリアル.001
s off
f 2/1/1 3/2/1 1/3/1
f 4/4/2 7/5/2 3/6/2
f 7/7/3 6/8/3 5/9/3
f 5/10/4 2/11/4 1/12/4
f 7/13/5 1/14/5 3/15/5
f 4/16/6 6/17/6 8/18/6
f 2/1/1 4/16/1 3/2/1
f 4/4/7 8/19/7 7/5/7
f 7/7/3 8/20/3 6/8/3
f 5/10/8 6/21/8 2/11/8
f 7/13/5 5/22/5 1/14/5
f 4/16/6 2/1/6 6/17/6
