# Blender v3.5.0 OBJ File: '無題.blend'
# www.blender.org
mtllib decorationB.mtl
o 平面.001_平面.004
v 0.000000 0.927631 0.002807
v 0.000000 -0.974492 0.312393
v 0.000000 0.859414 0.982518
v -0.000000 -0.237612 0.976632
v 0.000000 -0.125560 -0.166058
v 0.000000 0.462743 1.028269
v 0.000000 1.041622 0.567193
v -0.000000 -0.788086 0.767649
v 0.000000 -0.510114 0.468267
v 0.000000 0.655573 0.462258
v 0.000000 0.668104 0.077707
v 0.000000 -0.722174 0.153373
v 0.000000 0.517316 0.693069
v 0.000000 0.495822 -0.252723
v 0.000000 -0.608232 -0.098349
v 0.000000 -0.033821 0.601282
v 0.158843 0.927631 0.002807
v 0.158843 -0.974492 0.312393
v 0.158843 0.859414 0.982518
v 0.158843 -0.237612 0.976632
v 0.158843 -0.125560 -0.166058
v 0.158843 0.462743 1.028269
v 0.158843 1.041622 0.567193
v 0.158843 -0.788086 0.767649
v 0.158843 -0.510114 0.468267
v 0.158843 0.655573 0.462258
v 0.158843 0.668104 0.077707
v 0.158843 -0.722174 0.153373
v 0.158843 0.517316 0.693069
v 0.158843 0.495822 -0.252723
v 0.158843 -0.608232 -0.098349
v 0.158843 -0.033821 0.601282
v 0.000000 -0.125358 0.489790
v 0.000000 -0.241120 0.675636
v 0.000000 -0.438083 0.285687
v 0.000000 -0.600097 0.001331
v 0.000000 0.676532 0.354859
v 0.000000 0.449993 0.043815
v 0.000000 0.559158 0.604322
v 0.000000 0.352227 0.448138
v 0.000000 0.458860 0.295692
v 0.000000 -0.033025 -0.098163
v 0.000000 0.295965 0.653071
v 0.000000 0.596326 0.001583
v 0.000000 0.352853 -0.142497
v 0.000000 -0.597183 0.059693
v 0.000000 -0.755434 0.128295
v 0.000000 -0.636937 0.451953
v 0.000000 -0.041374 0.354962
v 0.158843 -0.600097 0.001331
v 0.158843 -0.438083 0.285687
v 0.158843 -0.125358 0.489790
v 0.158843 -0.241120 0.675636
v 0.158843 0.676532 0.354859
v 0.158843 0.559158 0.604322
v 0.158843 -0.033025 -0.098163
v 0.158843 0.449993 0.043815
v 0.158843 0.458860 0.295692
v 0.158843 0.352227 0.448138
v 0.158843 0.295965 0.653071
v 0.158843 0.596326 0.001583
v 0.158843 0.352853 -0.142497
v 0.158843 -0.597183 0.059693
v 0.158843 -0.755434 0.128295
v 0.158843 -0.636937 0.451953
v 0.158843 -0.041374 0.354962
v -0.161259 1.107080 0.014727
v -0.161260 -1.236073 0.524397
v -0.161259 1.071823 1.261637
v -0.161260 -0.233385 1.223053
v -0.161260 0.028134 -0.263275
v -0.161260 0.563253 1.288800
v -0.161259 1.208063 0.674200
v -0.161260 -0.879588 0.975317
v -0.161260 -0.527906 0.655806
v -0.161259 0.765135 0.588127
v -0.161259 0.805026 0.138034
v -0.161260 -0.820683 0.262602
v -0.161259 0.556785 0.804380
v -0.161259 0.521400 -0.338533
v -0.161260 -0.633101 -0.151806
v -0.161260 0.025065 0.788108
v -0.002416 1.107080 0.014727
v -0.002417 -1.236073 0.524397
v -0.002416 1.071823 1.261637
v -0.002417 -0.233385 1.223053
v -0.002416 0.028134 -0.263275
v -0.002416 0.563253 1.288800
v -0.002416 1.208063 0.674200
v -0.002417 -0.879588 0.975317
v -0.002417 -0.527906 0.655806
v -0.002416 0.765135 0.588127
v -0.002416 0.805026 0.138034
v -0.002417 -0.820683 0.262602
v -0.002416 0.556785 0.804380
v -0.002416 0.521400 -0.338533
v -0.002417 -0.633101 -0.151806
v -0.002417 0.025065 0.788108
vt 0.896391 0.933198
vt 1.000000 1.000000
vt 0.750000 1.000000
vt 0.301203 0.750000
vt 0.250000 0.830733
vt 0.250000 0.750000
vt 0.250000 1.000000
vt 0.486552 0.923576
vt 0.500000 1.000000
vt 0.328766 0.839579
vt 0.250000 0.949623
vt 0.250000 0.854693
vt 0.471172 0.373566
vt 0.471172 0.373566
vt 0.471172 0.401305
vt 0.250000 0.250000
vt 0.325176 0.313679
vt 0.262035 0.439249
vt 1.000000 0.250000
vt 1.000000 0.500000
vt 0.801658 0.500000
vt 0.943140 0.599149
vt 0.813195 0.550825
vt 0.951198 0.201198
vt 0.750000 0.000000
vt 1.000000 0.000000
vt 0.000000 0.250000
vt 0.000000 0.000000
vt 0.084738 0.750000
vt 0.000000 0.750000
vt 0.000000 0.500000
vt 0.072879 0.750000
vt 0.500000 0.915554
vt 0.750000 0.772737
vt 0.500000 0.765493
vt 0.500000 0.750000
vt 0.550331 0.466853
vt 0.569033 0.458319
vt 0.550331 0.461763
vt 0.559644 0.458311
vt 0.495630 0.436152
vt 0.559644 0.447997
vt 0.486456 0.460417
vt 0.496519 0.446359
vt 0.559644 0.461372
vt 0.518394 0.456065
vt 0.486456 0.461582
vt 0.486456 0.466853
vt 0.545323 0.448958
vt 0.535481 0.423168
vt 0.492108 0.426363
vt 0.548505 0.462393
vt 0.539671 0.462393
vt 0.512600 0.471745
vt 0.582269 0.434915
vt 0.526191 0.463371
vt 0.576245 0.428891
vt 0.503249 0.417137
vt 0.536924 0.439617
vt 0.548505 0.417137
vt 0.500067 0.448958
vt 0.500067 0.403702
vt 0.502459 0.442594
vt 0.499553 0.432625
vt 0.499553 0.442594
vt 0.499553 0.452563
vt 0.518394 0.434915
vt 0.518394 0.436894
vt 0.547941 0.437089
vt 0.518394 0.466853
vt 0.557184 0.422346
vt 0.516818 0.368343
vt 0.538491 0.393113
vt 0.563026 0.388077
vt 0.563026 0.388077
vt 0.463150 0.382792
vt 0.515604 0.457101
vt 0.557184 0.392778
vt 0.557184 0.392778
vt 0.557184 0.402634
vt 0.557184 0.402634
vt 0.536608 0.457101
vt 0.536608 0.457101
vt 0.471172 0.484842
vt 0.471172 0.447750
vt 0.471172 0.484842
vt 0.484824 0.377632
vt 0.463150 0.382792
vt 0.471172 0.373566
vt 0.471172 0.410658
vt 0.471172 0.410658
vt 0.529607 0.457101
vt 0.522605 0.457101
vt 0.522605 0.457101
vt 0.484824 0.377632
vt 0.616928 0.377632
vt 0.557184 0.412490
vt 0.557184 0.422346
vt 0.471172 0.447750
vt 0.515604 0.457101
vt 0.557184 0.412490
vt 0.471172 0.373566
vt 0.529607 0.457101
vt 0.563026 0.388077
vt 0.463150 0.382792
vt 0.463150 0.382792
vt 0.557184 0.392778
vt 0.515604 0.457101
vt 0.515604 0.457101
vt 0.557184 0.397265
vt 0.557184 0.392778
vt 0.557184 0.402634
vt 0.474212 0.484842
vt 0.471172 0.484842
vt 0.536608 0.457101
vt 0.471172 0.447750
vt 0.471172 0.447750
vt 0.471172 0.480605
vt 0.554212 0.382792
vt 0.484824 0.377632
vt 0.471172 0.422854
vt 0.471172 0.410658
vt 0.528944 0.457101
vt 0.529607 0.457101
vt 0.522605 0.457101
vt 0.484824 0.377632
vt 0.616928 0.377632
vt 0.616928 0.377632
vt 0.557184 0.422346
vt 0.557184 0.415492
vt 0.557184 0.412490
vt 0.519662 0.457101
vt 0.519662 0.457101
vt 0.557184 0.412490
vt 0.557184 0.402634
vt 0.563026 0.388077
vt 0.471172 0.359483
vt 0.536608 0.457101
vt 0.074477 0.078641
vt 0.074477 0.092055
vt 0.061063 0.092055
vt 0.101305 0.078641
vt 0.101305 0.092055
vt 0.087891 0.092055
vt 0.101305 0.118883
vt 0.087891 0.118883
vt 0.101305 0.105469
vt 0.074477 0.105469
vt 0.061063 0.118883
vt 0.061063 0.105469
vt 0.074477 0.132297
vt 0.061063 0.132297
vt 0.114718 0.132297
vt 0.114718 0.118883
vt 0.114718 0.105469
vt 0.114718 0.092055
vt 0.061063 0.092055
vt 0.074477 0.092055
vt 0.074477 0.078641
vt 0.087891 0.092055
vt 0.101305 0.092055
vt 0.101305 0.078641
vt 0.101305 0.118883
vt 0.101305 0.105469
vt 0.087891 0.105469
vt 0.074477 0.118883
vt 0.061063 0.105469
vt 0.061063 0.118883
vt 0.074477 0.105469
vt 0.074477 0.132297
vt 0.061063 0.132297
vt 0.114718 0.132297
vt 0.114718 0.118883
vt 0.114718 0.105469
vt 0.114718 0.092055
vt 0.114718 0.078641
vt 0.087891 0.078641
vt 0.061063 0.078641
vt 0.114718 0.078641
vt 0.074409 0.033809
vt 0.055807 0.079183
vt 0.055807 0.079183
vt 0.087891 0.078641
vt 0.074477 0.118883
vt 0.087891 0.118883
vt 0.061063 0.078641
vt 0.557184 0.422346
vt 0.560321 0.422346
vt 0.750000 0.960160
vt 1.000000 0.750000
vt 0.846483 0.810732
vt 0.397684 0.884497
vt 0.250000 0.958745
vt 0.471172 0.410658
vt 0.500000 0.250000
vt 0.441290 0.308710
vt 0.250000 0.500000
vt 0.301203 0.448797
vt 0.951198 0.298802
vt 0.952843 0.702843
vt 0.917614 0.167614
vt 0.000000 1.000000
vt 0.624720 0.890284
vt 0.750000 0.750000
vt 0.576245 0.434915
vt 0.582269 0.466853
vt 0.505323 0.452097
vt 0.533302 0.431987
vt 0.487769 0.446483
vt 0.523756 0.446483
vt 0.513128 0.446483
vt 0.536484 0.445422
vt 0.500579 0.445422
vt 0.533591 0.447479
vt 0.550331 0.434915
vt 0.534327 0.452836
vt 0.616928 0.377632
vt 0.471172 0.484842
vt 0.522605 0.457101
vt 0.490056 0.377632
vt 0.557184 0.418889
vt 0.529607 0.457101
vt 0.074409 0.033809
vt 0.538491 0.393113
vn -1.0000 0.0000 -0.0000
vn 0.0000 -0.8083 0.5887
vn 1.0000 -0.0000 0.0000
vn 0.0000 -0.7464 -0.6655
vn 0.0000 0.5093 -0.8606
vn 0.0000 -0.8814 0.4724
vn 0.0000 0.7328 0.6804
vn 0.0000 -0.6459 0.7634
vn 0.0000 0.9311 -0.3648
vn 0.0000 -0.1381 -0.9904
vn 0.0000 0.7950 -0.6066
vn 0.0000 -0.6520 0.7582
vn 0.0000 -0.1389 -0.9903
vn 0.0000 0.5332 0.8460
vn 0.0000 -0.2623 0.9650
vn 0.0000 0.8788 0.4771
vn 0.0000 -0.9943 -0.1067
vn 0.0000 0.2773 0.9608
vn 0.0000 0.9870 0.1607
vn 0.0000 -0.5093 0.8606
vn 0.0000 0.8926 -0.4509
vn 0.0000 -0.6414 -0.7672
vn 0.0000 0.6024 -0.7982
vn 0.0000 -0.9510 0.3091
vn 0.0000 0.1141 0.9935
vn 0.0000 0.2623 -0.9650
vn 0.0000 0.6622 -0.7493
vn 0.0000 0.1728 0.9850
vn 0.0000 -0.3977 -0.9175
vn 0.0000 -0.8488 -0.5287
vn 0.0000 0.9949 0.1008
vn 0.0000 -0.2773 -0.9608
vn 0.0000 -0.9643 -0.2647
vn 0.0000 0.5165 -0.8563
vn 0.0000 -0.8875 0.4608
vn 0.0000 0.6724 0.7401
vn 0.0000 -0.6639 0.7478
vn 0.0000 0.9101 -0.4144
vn 0.0000 -0.1508 -0.9886
vn 0.0000 0.7993 -0.6009
vn -0.0000 -0.6811 0.7322
vn -0.0000 -0.1662 -0.9861
vn 0.0000 -0.1908 0.9816
vn 0.0000 0.8597 0.5108
vn 0.0000 -0.9966 -0.0824
vn 0.0000 0.3779 0.9258
vn 0.0000 0.9999 -0.0134
vn 0.0000 0.6329 0.7743
usemtl Material.001
s off
f 34/1/1 4/2/1 16/3/1
f 38/4/1 37/5/1 11/6/1
f 13/7/1 43/8/1 6/9/1
f 41/10/1 39/11/1 37/12/1
f 38/13/2 57/14/2 54/15/2
f 14/16/1 45/17/1 44/18/1
f 12/19/1 8/20/1 46/21/1
f 8/20/1 48/22/1 46/23/1
f 47/24/1 15/25/1 2/26/1
f 11/27/1 1/28/1 14/16/1
f 37/29/1 10/30/1 7/31/1
f 39/11/1 10/30/1 37/32/1
f 43/33/1 16/3/1 6/9/1
f 36/34/1 42/35/1 5/36/1
f 32/37/3 53/38/3 52/39/3
f 54/40/3 57/41/3 27/42/3
f 55/43/3 58/44/3 54/45/3
f 60/46/3 55/47/3 29/48/3
f 30/49/3 61/50/3 62/51/3
f 28/52/3 64/53/3 63/54/3
f 25/55/3 65/56/3 51/57/3
f 31/58/3 64/59/3 18/60/3
f 27/61/3 30/49/3 17/62/3
f 54/63/3 27/42/3 23/64/3
f 55/47/3 26/65/3 19/66/3
f 21/67/3 56/68/3 50/69/3
f 32/37/3 60/46/3 22/70/3
f 2/71/4 15/72/4 31/73/4
f 1/74/5 17/75/5 30/76/5
f 4/77/6 9/78/6 25/79/6
f 9/78/7 8/80/7 24/81/7
f 13/82/8 29/83/8 19/84/8
f 10/85/9 3/86/9 19/84/9
f 5/87/10 14/88/10 30/76/10
f 11/89/11 7/90/11 23/91/11
f 6/92/12 16/93/12 32/94/12
f 5/87/13 21/95/13 31/96/13
f 12/97/14 2/71/14 18/98/14
f 7/90/15 10/85/15 26/99/15
f 16/93/16 4/77/16 20/100/16
f 8/80/17 12/97/17 28/101/17
f 1/74/18 11/89/18 27/102/18
f 13/82/19 6/92/19 22/103/19
f 44/104/20 45/105/20 62/106/20
f 35/107/21 34/108/21 53/109/21
f 35/110/22 51/111/22 65/112/22
f 39/113/23 55/114/23 59/115/23
f 41/116/24 58/117/24 55/118/24
f 45/105/25 42/119/25 56/120/25
f 41/116/26 37/121/26 54/122/26
f 43/123/27 60/124/27 66/125/27
f 42/126/28 36/127/28 50/128/28
f 47/129/29 46/130/29 63/131/29
f 33/132/30 52/133/30 53/109/30
f 46/134/31 48/135/31 65/112/31
f 44/104/32 61/136/32 57/137/32
f 40/138/33 59/115/33 60/124/33
f 82/139/1 81/140/1 75/141/1
f 79/142/1 77/143/1 71/144/1
f 80/145/1 71/146/1 77/147/1
f 81/148/1 78/149/1 74/150/1
f 81/148/1 74/150/1 75/141/1
f 81/151/1 68/152/1 78/149/1
f 67/153/1 80/145/1 77/154/1
f 73/155/1 77/143/1 76/156/1
f 76/156/1 77/143/1 79/142/1
f 71/144/1 81/140/1 82/139/1
f 91/157/3 97/158/3 98/159/3
f 87/160/3 93/161/3 95/162/3
f 96/163/3 93/164/3 87/165/3
f 97/166/3 90/167/3 94/168/3
f 97/169/3 91/157/3 90/167/3
f 97/170/3 94/168/3 84/171/3
f 83/172/3 93/173/3 96/163/3
f 89/174/3 92/175/3 93/161/3
f 92/175/3 85/176/3 95/162/3
f 87/160/3 88/177/3 98/159/3
f 68/152/4 81/151/4 97/170/4
f 80/145/34 67/153/34 83/172/34
f 70/178/35 75/141/35 91/157/35
f 75/141/36 74/150/36 90/167/36
f 69/179/37 79/142/37 95/162/37
f 76/180/38 69/181/38 85/182/38
f 71/146/39 80/145/39 96/163/39
f 77/154/40 73/155/40 89/174/40
f 72/183/41 82/139/41 98/159/41
f 81/184/42 71/146/42 87/185/42
f 78/149/14 68/152/14 84/171/14
f 73/155/43 76/156/43 92/175/43
f 82/139/44 70/178/44 86/186/44
f 74/150/45 78/149/45 94/168/45
f 67/153/46 77/154/46 93/173/46
f 79/142/47 72/183/47 88/177/47
f 47/129/48 64/187/48 50/188/48
f 34/1/1 16/3/1 33/189/1
f 4/2/1 34/1/1 9/190/1
f 9/190/1 34/1/1 35/191/1
f 40/192/1 43/8/1 39/193/1
f 39/193/1 43/8/1 13/7/1
f 38/13/2 54/15/2 37/194/2
f 45/17/1 5/195/1 42/196/1
f 11/197/1 44/18/1 38/198/1
f 45/17/1 14/16/1 5/195/1
f 14/16/1 44/18/1 11/197/1
f 12/19/1 46/21/1 47/199/1
f 35/200/1 48/22/1 9/190/1
f 9/190/1 48/22/1 8/20/1
f 47/24/1 2/26/1 12/19/1
f 15/25/1 47/24/1 36/201/1
f 37/29/1 7/31/1 11/6/1
f 10/30/1 39/11/1 3/202/1
f 3/202/1 39/11/1 13/7/1
f 33/189/1 16/3/1 49/203/1
f 49/203/1 16/3/1 43/33/1
f 36/34/1 5/36/1 15/204/1
f 51/205/3 53/38/3 25/55/3
f 25/55/3 53/38/3 20/206/3
f 20/206/3 53/38/3 32/37/3
f 55/47/3 60/46/3 59/207/3
f 60/46/3 29/48/3 22/70/3
f 61/50/3 27/208/3 57/209/3
f 30/49/3 62/51/3 21/210/3
f 21/210/3 62/51/3 56/211/3
f 61/50/3 30/49/3 27/208/3
f 28/52/3 63/54/3 24/212/3
f 65/56/3 24/212/3 63/213/3
f 24/212/3 65/56/3 25/55/3
f 64/59/3 31/58/3 50/214/3
f 18/60/3 64/59/3 28/52/3
f 54/63/3 23/64/3 26/65/3
f 55/47/3 19/66/3 29/48/3
f 26/65/3 55/47/3 54/45/3
f 21/67/3 50/69/3 31/215/3
f 60/46/3 32/37/3 66/216/3
f 66/216/3 32/37/3 52/39/3
f 2/71/4 31/73/4 18/98/4
f 1/74/5 30/76/5 14/88/5
f 4/77/6 25/79/6 20/100/6
f 9/78/7 24/81/7 25/79/7
f 13/82/8 19/84/8 3/86/8
f 10/85/9 19/84/9 26/99/9
f 5/87/10 30/76/10 21/95/10
f 11/89/11 23/91/11 27/102/11
f 6/92/12 32/94/12 22/103/12
f 5/87/13 31/96/13 15/217/13
f 12/97/14 18/98/14 28/101/14
f 7/90/15 26/99/15 23/91/15
f 16/93/16 20/100/16 32/94/16
f 8/80/17 28/101/17 24/81/17
f 1/74/18 27/102/18 17/75/18
f 13/82/19 22/103/19 29/83/19
f 44/104/20 62/106/20 61/136/20
f 35/107/21 53/109/21 51/111/21
f 35/110/22 65/112/22 48/135/22
f 39/113/23 59/115/23 40/138/23
f 41/116/24 55/118/24 39/218/24
f 45/105/25 56/120/25 62/106/25
f 41/116/26 54/122/26 58/117/26
f 43/123/27 66/125/27 49/219/27
f 42/126/28 50/128/28 56/220/28
f 47/129/29 63/131/29 64/221/29
f 52/133/30 49/219/30 66/125/30
f 33/132/30 53/109/30 34/108/30
f 52/133/30 33/132/30 49/219/30
f 46/134/31 65/112/31 63/131/31
f 44/104/32 57/137/32 38/13/32
f 40/138/33 60/124/33 43/222/33
f 82/139/1 75/141/1 70/178/1
f 79/142/1 71/144/1 72/183/1
f 76/156/1 79/142/1 69/179/1
f 71/144/1 82/139/1 72/183/1
f 91/157/3 98/159/3 86/186/3
f 87/160/3 95/162/3 88/177/3
f 92/175/3 95/162/3 93/161/3
f 87/160/3 98/159/3 97/158/3
f 68/152/4 97/170/4 84/171/4
f 80/145/34 83/172/34 96/163/34
f 70/178/35 91/157/35 86/186/35
f 75/141/36 90/167/36 91/157/36
f 69/179/37 95/162/37 85/176/37
f 76/180/38 85/182/38 92/223/38
f 71/146/39 96/163/39 87/185/39
f 77/154/40 89/174/40 93/173/40
f 72/183/41 98/159/41 88/177/41
f 81/184/42 87/185/42 97/166/42
f 78/149/14 84/171/14 94/168/14
f 73/155/43 92/175/43 89/174/43
f 82/139/44 86/186/44 98/159/44
f 74/150/45 94/168/45 90/167/45
f 67/153/46 93/173/46 83/172/46
f 79/142/47 88/177/47 95/162/47
f 47/129/48 50/188/48 36/224/48
