# Blender v3.5.0 OBJ File: 'enemy.blend'
# www.blender.org
mtllib EnemyBody.mtl
o Cube
v 1.000000 1.000000 -1.000000
v 1.000000 -1.000000 -1.000000
v 1.000000 1.000000 1.000000
v 1.000000 -1.000000 1.000000
v -1.000000 1.000000 -1.000000
v -1.000000 -1.000000 -1.000000
v -1.000000 1.000000 1.000000
v -1.000000 -1.000000 1.000000
vt 0.654239 0.343167
vt 0.584065 0.413341
vt 0.584065 0.343167
vt 0.406640 0.660940
vt 0.336466 0.590766
vt 0.406640 0.590766
vt 0.158886 0.659820
vt 0.088712 0.589646
vt 0.158886 0.589646
vt 0.158886 0.342048
vt 0.088712 0.412222
vt 0.088712 0.342048
vt 0.406640 0.413341
vt 0.336466 0.343167
vt 0.406640 0.343167
vt 0.652904 0.158886
vt 0.582729 0.088712
vt 0.652904 0.088712
vt 0.654239 0.413341
vt 0.336466 0.660940
vt 0.088712 0.659820
vt 0.158886 0.412222
vt 0.336466 0.413341
vt 0.582729 0.158886
vn 0.0000 1.0000 -0.0000
vn 0.0000 0.0000 1.0000
vn -1.0000 0.0000 0.0000
vn 0.0000 -1.0000 -0.0000
vn 1.0000 0.0000 -0.0000
vn -0.0000 0.0000 -1.0000
usemtl Material
s off
f 5/1/1 3/2/1 1/3/1
f 3/4/2 8/5/2 4/6/2
f 7/7/3 6/8/3 8/9/3
f 2/10/4 8/11/4 6/12/4
f 1/13/5 4/14/5 2/15/5
f 5/16/6 2/17/6 6/18/6
f 5/1/1 7/19/1 3/2/1
f 3/4/2 7/20/2 8/5/2
f 7/7/3 5/21/3 6/8/3
f 2/10/4 4/22/4 8/11/4
f 1/13/5 3/23/5 4/14/5
f 5/16/6 1/24/6 2/17/6
