# Blender v3.5.0 OBJ File: 'num.blend'
# www.blender.org
mtllib gauge.mtl
o 立方体.003_立方体.007
v -1.521669 0.344620 -0.085569
v -2.781572 -0.344620 -0.085569
v -1.521669 0.344620 -0.343046
v -2.781572 -0.344620 -0.343046
v 1.521669 0.344620 -0.085569
v 2.781572 -0.344620 -0.085569
v 1.521669 0.344620 -0.343046
v 2.781572 -0.344620 -0.343046
v -1.501213 0.264637 0.101936
v -1.488425 0.214637 0.260309
v -2.468703 -0.264637 0.101936
v -2.273121 -0.214637 0.260309
v -1.501213 0.264637 -0.058800
v -1.488425 0.214637 0.125170
v -2.468703 -0.264637 -0.058800
v -2.273121 -0.214637 0.125170
v 1.501213 0.264637 0.101936
v 1.488425 0.214637 0.260309
v 2.468703 -0.264637 0.101936
v 2.273121 -0.214637 0.260309
v 1.501213 0.264637 -0.058800
v 1.488425 0.214637 0.125170
v 2.468703 -0.264637 -0.058800
v 2.273121 -0.214637 0.125170
vt 0.113736 0.877718
vt 0.135969 0.877718
vt 0.135969 0.855485
vt 0.113736 0.899951
vt 0.135969 0.899951
vt 0.113736 0.922184
vt 0.135969 0.922184
vt 0.113736 0.944417
vt 0.135969 0.944417
vt 0.091503 0.922184
vt 0.158202 0.922184
vt 0.158202 0.899951
vt 0.474254 0.397017
vt 0.474254 0.448508
vt 0.525746 0.448508
vt 0.135969 0.877718
vt 0.113736 0.877718
vt 0.113736 0.855485
vt 0.474254 0.500000
vt 0.525746 0.500000
vt 0.135969 0.899951
vt 0.113736 0.899951
vt 0.474254 0.551492
vt 0.525746 0.551492
vt 0.135969 0.922184
vt 0.113736 0.922184
vt 0.474254 0.602983
vt 0.525746 0.602983
vt 0.135969 0.944417
vt 0.113736 0.944417
vt 0.422762 0.500000
vt 0.422762 0.551492
vt 0.091503 0.922184
vt 0.091503 0.899951
vt 0.577238 0.551492
vt 0.158202 0.922184
vt 0.113736 0.855485
vt 0.091503 0.899951
vt 0.525746 0.397017
vt 0.135969 0.855485
vt 0.577238 0.500000
vt 0.158202 0.899951
vn -0.4799 0.8773 0.0000
vn 0.0000 0.0000 -1.0000
vn 0.4799 0.8773 0.0000
vn 0.0000 0.0000 1.0000
vn 0.0000 1.0000 0.0000
vn 0.0000 -1.0000 0.0000
vn 0.4799 -0.8773 0.0000
vn -0.4799 -0.8773 0.0000
usemtl Material
s off
f 3/1/1 4/2/1 2/3/1
f 7/4/2 8/5/2 4/2/2
f 5/6/3 6/7/3 8/5/3
f 1/8/4 2/9/4 6/7/4
f 1/10/5 5/6/5 7/4/5
f 6/7/6 2/11/6 4/12/6
f 9/13/1 13/14/1 15/15/1
f 16/16/7 14/17/7 10/18/7
f 13/14/2 21/19/2 23/20/2
f 24/21/4 22/22/4 14/17/4
f 21/19/3 17/23/3 19/24/3
f 20/25/8 18/26/8 22/22/8
f 17/23/4 9/27/4 11/28/4
f 12/29/2 10/30/2 18/26/2
f 13/31/5 9/32/5 17/23/5
f 18/26/6 10/33/6 14/34/6
f 23/20/6 19/24/6 11/35/6
f 12/36/5 20/25/5 24/21/5
f 3/1/1 2/3/1 1/37/1
f 7/4/2 4/2/2 3/1/2
f 5/6/3 8/5/3 7/4/3
f 1/8/4 6/7/4 5/6/4
f 1/10/5 7/4/5 3/38/5
f 6/7/6 4/12/6 8/5/6
f 9/13/1 15/15/1 11/39/1
f 16/16/7 10/18/7 12/40/7
f 13/14/2 23/20/2 15/15/2
f 24/21/4 14/17/4 16/16/4
f 21/19/3 19/24/3 23/20/3
f 20/25/8 22/22/8 24/21/8
f 17/23/4 11/28/4 19/24/4
f 12/29/2 18/26/2 20/25/2
f 13/31/5 17/23/5 21/19/5
f 18/26/6 14/34/6 22/22/6
f 23/20/6 11/35/6 15/41/6
f 12/36/5 24/21/5 16/42/5
