# Blender v3.5.0 OBJ File: '無題.blend'
# www.blender.org
mtllib handRight.mtl
o パンチ右_立方体.003
v -0.114926 -0.219322 0.261549
v -0.099413 0.244157 0.232158
v -0.052631 -0.227623 -0.152261
v -0.052631 0.244691 -0.152261
v -0.009665 -0.203271 0.261549
v 0.005848 0.244157 0.232158
v 0.052631 -0.227623 -0.152261
v 0.052631 0.249274 -0.146365
v -0.114926 0.000444 0.329150
v -0.052631 0.001437 -0.252251
v 0.052631 0.000444 -0.252251
v -0.009665 0.000444 0.329150
v -0.061340 -0.268365 0.000000
v -0.052631 0.300212 0.000000
v 0.078742 -0.252314 0.000000
v 0.052631 0.300212 0.000000
v 0.110379 0.000444 0.000000
v -0.012876 0.212950 0.000000
v -0.114926 0.185241 0.321465
v 0.052631 0.152326 -0.252251
v -0.009665 0.175193 0.321465
v 0.110379 0.152326 0.000000
v 0.052631 -0.146524 -0.252251
v 0.110379 -0.168101 0.172613
v 0.005118 -0.198579 0.172613
v 0.110379 -0.146524 0.000000
v -0.061340 -0.268365 0.172613
v 0.052631 0.301057 0.059770
v 0.110379 0.000444 0.172613
v -0.052631 0.301057 0.059770
v 0.078742 -0.252314 0.172613
v 0.005118 -0.015608 0.172613
v 0.110379 0.175193 0.191814
v -0.052631 0.280088 -0.092600
v 0.052631 -0.252314 -0.092600
v -0.052631 -0.252314 -0.092600
v 0.084387 0.000296 -0.172613
v 0.084387 0.175193 -0.172613
v 0.084387 -0.190586 -0.152609
v 0.052631 0.064730 -0.252251
v 0.110379 0.086306 0.172613
v 0.110379 0.064730 0.000000
v 0.031351 0.094284 0.182213
v 0.084387 0.107883 -0.172613
v -0.114926 -0.047023 0.300533
v 0.052631 -0.064286 -0.252251
v -0.009665 -0.047023 0.300533
v 0.110379 -0.064286 0.000000
v 0.005118 -0.101914 0.172613
v 0.110379 -0.085863 0.172613
v 0.084387 -0.105405 -0.172613
v -0.052631 -0.207795 -0.194235
v 0.052631 -0.207795 -0.194235
v -0.009665 -0.151725 0.263084
v 0.110379 -0.213071 0.000000
v -0.114926 -0.151725 0.263084
v 0.110379 -0.213071 0.172613
v 0.005118 -0.243549 0.172613
v -0.114926 0.095859 0.321465
v -0.009665 0.095859 0.321465
v 0.110379 0.129459 0.191814
v -0.009665 0.065419 0.329150
v 0.110379 0.043153 0.172613
v 0.005118 0.043153 0.172613
v -0.114926 0.065419 0.329150
v 0.005118 -0.058761 0.172613
v 0.110379 -0.042709 0.172613
v -0.009665 -0.106882 0.300533
v 0.005118 -0.155426 0.172613
v 0.110379 -0.124948 0.172613
v -0.114926 -0.122933 0.300533
v -0.099413 0.196579 0.246223
v -0.052631 0.223041 -0.194235
v 0.005848 0.196579 0.246223
v 0.050084 0.218346 0.000000
v -0.052631 0.251609 0.000000
v -0.052631 0.257746 0.045996
v 0.052631 0.195040 -0.223243
v -0.052631 0.251609 -0.132606
v -0.052631 0.195040 -0.223243
v -0.052631 0.218346 -0.152609
vt 0.593750 0.187500
vt 0.625000 0.187500
vt 0.625000 0.250000
vt 0.593750 0.250000
vt 0.593750 0.500000
vt 0.099031 0.919808
vt 0.102018 0.919808
vt 0.102018 0.925781
vt 0.099031 0.925781
vt 0.593750 0.750000
vt 0.625000 0.750000
vt 0.625000 1.000000
vt 0.593750 1.000000
vt 0.054233 0.919808
vt 0.078125 0.919808
vt 0.078125 0.925781
vt 0.054233 0.925781
vt 0.625000 0.687500
vt 0.875000 0.687500
vt 0.875000 0.750000
vt 0.088578 0.925781
vt 0.090071 0.925781
vt 0.090071 0.949674
vt 0.088578 0.949674
vt 0.088578 0.919808
vt 0.090071 0.919808
vt 0.500000 0.250000
vt 0.500000 0.500000
vt 0.484375 0.500000
vt 0.484375 0.062500
vt 0.500000 0.062500
vt 0.484375 0.125000
vt 0.090071 0.907862
vt 0.090071 0.913835
vt 0.088578 0.913835
vt 0.625000 0.562500
vt 0.875000 0.562500
vt 0.875000 0.625000
vt 0.625000 0.625000
vt 0.125000 0.562500
vt 0.375000 0.562500
vt 0.375000 0.625000
vt 0.125000 0.625000
vt 0.099031 0.907862
vt 0.102018 0.907862
vt 0.102018 0.913835
vt 0.099031 0.913835
vt 0.593750 0.062500
vt 0.625000 0.062500
vt 0.625000 0.125000
vt 0.593750 0.125000
vt 0.546875 0.062500
vt 0.562500 0.062500
vt 0.546875 0.125000
vt 0.094551 0.907862
vt 0.096044 0.907862
vt 0.094551 0.913835
vt 0.094551 0.925781
vt 0.096044 0.925781
vt 0.096044 0.949674
vt 0.094551 0.949674
vt 0.094551 0.919808
vt 0.096044 0.919808
vt 0.084098 0.907862
vt 0.084098 0.913835
vt 0.081112 0.913835
vt 0.406250 0.062500
vt 0.437500 0.062500
vt 0.406250 0.125000
vt 0.437500 0.187500
vt 0.437500 0.250000
vt 0.406250 0.250000
vt 0.437500 0.500000
vt 0.406250 0.500000
vt 0.081112 0.919808
vt 0.084098 0.925781
vt 0.081112 0.925781
vt 0.084098 0.949674
vt 0.081112 0.949674
vt 0.084098 0.919808
vt 0.406250 0.000000
vt 0.096044 0.913835
vt 0.546875 0.000000
vt 0.593750 0.000000
vt 0.625000 0.000000
vt 0.484375 0.000000
vt 0.500000 0.000000
vt 0.375000 0.687500
vt 0.125000 0.687500
vt 0.081112 0.901889
vt 0.084098 0.901889
vt 0.081112 0.907862
vt 0.096044 0.901889
vt 0.125000 0.500000
vt 0.375000 0.500000
vt 0.625000 0.500000
vt 0.875000 0.500000
vt 0.088578 0.901889
vt 0.090071 0.901889
vt 0.088578 0.907862
vt 0.093058 0.901889
vt 0.093058 0.907862
vt 0.091565 0.907862
vt 0.515625 0.000000
vt 0.531250 0.062500
vt 0.515625 0.062500
vt 0.093058 0.913835
vt 0.093058 0.919808
vt 0.091565 0.919808
vt 0.093058 0.925781
vt 0.091565 0.925781
vt 0.093058 0.949674
vt 0.091565 0.949674
vt 0.091565 0.913835
vt 0.515625 0.125000
vt 0.085591 0.901889
vt 0.087085 0.901889
vt 0.085591 0.907862
vt 0.085591 0.913835
vt 0.087085 0.913835
vt 0.087085 0.919808
vt 0.085591 0.919808
vt 0.453125 0.000000
vt 0.468750 0.000000
vt 0.468750 0.062500
vt 0.453125 0.062500
vt 0.087085 0.907862
vt 0.453125 0.125000
vt 0.468750 0.250000
vt 0.468750 0.500000
vt 0.453125 0.500000
vt 0.087085 0.925781
vt 0.085591 0.925781
vt 0.087085 0.949674
vt 0.085591 0.949674
vt 0.078125 0.901889
vt 0.078125 0.907862
vt 0.375000 0.125000
vt 0.406250 0.187500
vt 0.375000 0.187500
vt 0.375000 0.000000
vt 0.375000 0.062500
vt 0.078125 0.913835
vt 0.078125 0.949674
vt 0.375000 0.250000
vt 0.094551 0.901889
vt 0.546875 0.250000
vt 0.546875 0.500000
vt 0.531250 0.500000
vt 0.500000 0.125000
vt 0.515625 0.250000
vt 0.515625 0.500000
vt 0.091565 0.901889
vt 0.468750 0.125000
vt 0.437500 0.125000
vt 0.437500 0.000000
vt 0.578125 0.125000
vt 0.578125 0.187500
vt 0.578125 0.000000
vt 0.578125 0.062500
vt 0.578125 0.750000
vt 0.578125 1.000000
vt 0.578125 0.250000
vt 0.578125 0.500000
vt 0.562500 0.187500
vt 0.562500 0.250000
vt 0.562500 0.500000
vt 0.097538 0.925781
vt 0.562500 0.750000
vt 0.562500 1.000000
vt 0.097538 0.907862
vt 0.097538 0.913835
vt 0.097538 0.919808
vn -1.0000 0.0000 0.0000
vn -0.0130 0.8887 -0.4584
vn 0.9767 -0.0878 0.1959
vn 0.0000 0.2835 0.9590
vn 0.1088 -0.8312 0.5452
vn 0.0000 0.9496 0.3134
vn 0.0710 -0.9307 0.3587
vn 0.7935 0.0000 0.6085
vn 0.0000 0.0000 -1.0000
vn -0.9946 0.0000 0.1037
vn 0.9889 0.0000 -0.1489
vn 0.0674 0.9563 -0.2844
vn 0.0650 -0.9936 -0.0922
vn 0.9996 -0.0255 0.0120
vn -0.6828 -0.6769 -0.2751
vn -0.0000 0.0000 1.0000
vn 0.7338 0.0000 0.6794
vn 0.9858 0.0000 -0.1679
vn -0.9913 0.0351 0.1268
vn -0.2670 -0.3799 -0.8857
vn 0.6019 0.0000 0.7986
vn -0.1263 0.8723 -0.4724
vn 1.0000 0.0000 0.0000
vn -0.6019 0.0000 -0.7986
vn -0.6895 0.0000 -0.7243
vn -0.9698 -0.0008 -0.2438
vn -0.7935 0.0000 -0.6085
vn 0.0000 0.9999 -0.0141
vn 0.1138 -0.9935 0.0000
vn 0.9995 -0.0311 0.0004
vn 0.7981 -0.4143 -0.4376
vn 0.9289 0.0000 -0.3704
vn 0.0000 -0.9240 -0.3824
vn -0.0089 0.8600 -0.5102
vn -0.6742 0.4551 -0.5817
vn 0.0531 0.9770 0.2067
vn -0.8340 0.3474 0.4287
vn -0.7292 0.0000 -0.6843
vn 0.7292 0.0000 0.6843
vn 0.7286 -0.6273 -0.2748
vn -0.9921 0.0999 -0.0760
vn -0.5022 0.3741 -0.7797
vn 0.7785 -0.6276 0.0000
vn 0.0020 -0.0258 0.9997
vn 0.5705 -0.2122 0.7934
vn 0.0000 -0.9042 -0.4271
vn -0.9964 0.0781 0.0342
vn -0.9223 0.2094 0.3250
vn 0.7630 -0.6086 -0.2179
vn 0.7401 -0.2734 0.6144
vn -0.0433 -0.9991 -0.0015
vn -0.0756 0.9921 -0.0998
vn 0.1747 -0.7906 0.5869
vn 0.9868 -0.0370 -0.1574
vn 0.9393 -0.0784 -0.3340
vn -0.8566 -0.5041 0.1099
vn -0.8480 -0.4180 -0.3258
vn -0.6940 -0.7137 0.0952
vn 0.0320 -0.9971 -0.0687
vn 0.0410 0.7891 -0.6129
vn -0.9799 -0.0832 0.1812
vn -0.1684 0.2350 -0.9573
vn 0.1761 0.9708 0.1630
vn 0.0275 0.9928 0.1163
vn 0.6937 0.7190 -0.0419
vn 0.7360 0.6722 -0.0801
vn 0.8580 0.2886 -0.4250
usemtl Material
s off
f 79/1/1 34/2/1 4/3/1 73/4/1
f 73/4/2 4/3/2 8/5/2
f 75/6/3 28/7/3 6/8/3 74/9/3
f 74/10/4 6/11/4 2/12/4 72/13/4
f 27/14/5 31/15/5 5/16/5 1/17/5
f 28/18/6 30/19/6 2/20/6 6/11/6
f 67/21/7 12/22/7 9/23/7 66/24/7
f 67/25/8 29/26/8 12/22/8
f 10/27/9 11/28/9 46/29/9
f 66/30/10 32/31/10 18/32/10
f 37/33/11 17/34/11 48/35/11
f 8/36/12 34/37/12 14/38/12 16/39/12
f 36/40/13 35/41/13 15/42/13 13/43/13
f 78/44/14 8/45/14 16/46/14 75/47/14
f 77/48/1 30/49/1 14/50/1 76/51/1
f 43/52/15 19/53/15 18/54/15
f 44/55/11 38/56/11 22/57/11
f 60/58/16 21/59/16 19/60/16 59/61/16
f 61/62/17 33/63/17 21/59/17 60/58/17
f 39/64/18 26/65/18 55/66/18
f 58/67/10 25/68/10 18/69/10
f 18/70/19 10/71/19 52/72/19
f 52/72/20 10/71/20 23/73/20 53/74/20
f 57/75/21 24/76/21 54/77/21
f 54/77/22 24/76/22 25/78/22 56/79/22
f 55/66/23 26/65/23 24/80/23 57/75/23
f 56/81/24 25/68/24 58/67/24
f 22/82/23 33/63/23 61/62/23
f 59/83/25 19/53/25 43/52/25
f 72/84/26 2/85/26 30/49/26 77/48/26
f 66/86/27 9/87/27 32/31/27
f 48/35/23 17/34/23 29/26/23 67/25/23
f 16/39/28 14/38/28 30/19/28 28/18/28
f 13/43/29 15/42/29 31/88/29 27/89/29
f 75/47/30 16/46/30 28/7/30
f 53/90/31 23/91/31 39/92/31
f 20/93/32 38/56/32 44/55/32
f 3/94/33 7/95/33 35/41/33 36/40/33
f 8/96/34 4/97/34 34/37/34
f 46/98/32 11/99/32 37/100/32
f 76/51/1 14/50/1 34/2/1 79/1/1
f 40/101/32 44/102/32 37/103/32
f 65/104/35 43/105/35 64/106/35
f 42/107/23 41/108/23 63/109/23
f 63/109/8 41/110/8 62/111/8
f 62/111/36 41/110/36 43/112/36 65/113/36
f 37/103/11 44/102/11 42/114/11
f 64/106/37 43/105/37 18/115/37
f 23/116/32 46/117/32 51/118/32
f 26/119/23 48/120/23 50/121/23 70/122/23
f 71/123/38 45/124/38 49/125/38 69/126/38
f 51/127/11 48/120/11 26/119/11
f 69/126/10 49/125/10 18/128/10
f 10/129/9 46/130/9 23/131/9
f 70/122/39 50/121/39 47/132/39 68/133/39
f 68/133/16 47/132/16 45/134/16 71/135/16
f 7/136/40 53/90/40 39/92/40 35/137/40
f 13/138/41 18/139/41 36/140/41
f 1/141/42 56/81/42 58/67/42 27/142/42
f 15/143/43 55/66/43 57/75/43 31/15/43
f 5/16/44 54/77/44 56/79/44 1/144/44
f 31/15/45 57/75/45 54/77/45 5/16/45
f 3/145/46 52/72/46 53/74/46 7/95/46
f 36/140/47 18/139/47 52/72/47 3/145/47
f 27/142/48 58/67/48 18/69/48 13/138/48
f 35/137/49 39/92/49 55/66/49 15/143/49
f 40/101/32 20/146/32 44/102/32
f 42/107/23 22/57/23 61/62/23 41/108/23
f 10/147/9 20/148/9 40/149/9
f 41/108/50 61/62/50 60/58/50
f 41/110/51 60/58/51 59/61/51 43/112/51
f 44/55/11 22/57/11 42/107/11
f 32/31/10 64/106/10 18/150/10
f 37/103/11 42/114/11 17/34/11
f 12/22/16 62/111/16 65/113/16 9/23/16
f 29/26/8 63/109/8 62/111/8 12/22/8
f 10/151/9 40/152/9 11/28/9
f 17/34/23 42/114/23 63/109/23 29/26/23
f 9/87/27 65/104/27 64/106/27 32/31/27
f 11/99/32 40/153/32 37/33/32
f 46/98/32 37/100/32 51/127/32
f 48/35/23 67/25/23 50/121/23
f 45/124/38 66/30/38 49/125/38
f 51/127/11 37/100/11 48/120/11
f 49/125/10 66/30/10 18/154/10
f 50/121/39 67/21/39 47/132/39
f 47/132/52 67/21/52 66/24/52 45/134/52
f 24/76/53 68/133/53 71/135/53 25/78/53
f 24/80/39 70/122/39 68/133/39
f 25/68/10 69/126/10 18/155/10
f 39/64/54 51/118/54 26/65/54
f 25/156/38 71/123/38 69/126/38
f 26/119/23 70/122/23 24/80/23
f 23/116/55 51/118/55 39/64/55
f 18/157/56 76/51/56 79/1/56 81/158/56
f 18/159/57 72/84/57 77/48/57
f 18/160/58 77/48/58 76/51/58
f 75/161/59 74/10/59 72/13/59 18/162/59
f 80/163/60 73/4/60 8/5/60 78/164/60
f 81/158/1 79/1/1 73/4/1 80/163/1
f 18/165/61 81/158/61 80/163/61 10/166/61
f 10/166/62 80/163/62 78/164/62 20/167/62
f 33/63/63 75/168/63 21/59/63
f 21/169/64 75/161/64 18/162/64 19/170/64
f 38/56/65 78/171/65 75/172/65 22/82/65
f 22/82/66 75/173/66 33/63/66
f 20/93/67 78/171/67 38/56/67
