# Blender v3.5.0 OBJ File: '無題.blend'
# www.blender.org
mtllib handRight.mtl
o パンチ右_立方体.003
v -0.114926 -0.219322 0.261549
v -0.099413 0.244157 0.232158
v -0.052631 -0.227623 -0.152261
v -0.052631 0.244691 -0.152261
v -0.009665 -0.203271 0.261549
v 0.005848 0.244157 0.232158
v 0.052631 -0.227623 -0.152261
v 0.052631 0.249274 -0.146365
v -0.114926 0.000444 0.329150
v -0.052631 0.001437 -0.252251
v 0.052631 0.000444 -0.252251
v -0.009665 0.000444 0.329150
v -0.061340 -0.268365 0.000000
v -0.052631 0.300212 0.000000
v 0.078742 -0.252314 0.000000
v 0.052631 0.300212 0.000000
v 0.110379 0.000444 0.000000
v -0.012876 0.212950 0.000000
v -0.114926 0.185241 0.321465
v 0.052631 0.152326 -0.252251
v -0.009665 0.175193 0.321465
v 0.110379 0.152326 0.000000
v 0.052631 -0.146524 -0.252251
v 0.110379 -0.168101 0.172613
v 0.005118 -0.198579 0.172613
v 0.110379 -0.146524 0.000000
v -0.061340 -0.268365 0.172613
v 0.052631 0.301057 0.059770
v 0.110379 0.000444 0.172613
v -0.052631 0.301057 0.059770
v 0.078742 -0.252314 0.172613
v 0.005118 -0.015608 0.172613
v 0.110379 0.175193 0.191814
v -0.052631 0.280088 -0.092600
v 0.052631 -0.252314 -0.092600
v -0.052631 -0.252314 -0.092600
v 0.084387 0.000296 -0.172613
v 0.084387 0.175193 -0.172613
v 0.084387 -0.190586 -0.152609
v 0.052631 0.064730 -0.252251
v 0.110379 0.086306 0.172613
v 0.110379 0.064730 0.000000
v 0.031351 0.094284 0.182213
v 0.084387 0.107883 -0.172613
v -0.114926 -0.047023 0.300533
v 0.052631 -0.064286 -0.252251
v -0.009665 -0.047023 0.300533
v 0.110379 -0.064286 0.000000
v 0.005118 -0.101914 0.172613
v 0.110379 -0.085863 0.172613
v 0.084387 -0.105405 -0.172613
v -0.052631 -0.207795 -0.194235
v 0.052631 -0.207795 -0.194235
v -0.009665 -0.151725 0.263084
v 0.110379 -0.213071 0.000000
v -0.114926 -0.151725 0.263084
v 0.110379 -0.213071 0.172613
v 0.005118 -0.243549 0.172613
v -0.114926 0.095859 0.321465
v -0.009665 0.095859 0.321465
v 0.110379 0.129459 0.191814
v -0.009665 0.065419 0.329150
v 0.110379 0.043153 0.172613
v 0.005118 0.043153 0.172613
v -0.114926 0.065419 0.329150
v 0.005118 -0.058761 0.172613
v 0.110379 -0.042709 0.172613
v -0.009665 -0.106882 0.300533
v 0.005118 -0.155426 0.172613
v 0.110379 -0.124948 0.172613
v -0.114926 -0.122933 0.300533
v -0.099413 0.196579 0.246223
v -0.052631 0.223041 -0.194235
v 0.005848 0.196579 0.246223
v 0.050084 0.218346 0.000000
v -0.052631 0.251609 0.000000
v -0.052631 0.257746 0.045996
v 0.052631 0.195040 -0.223243
v -0.052631 0.251609 -0.132606
v -0.052631 0.195040 -0.223243
v -0.052631 0.218346 -0.152609
vt 0.593750 0.187500
vt 0.625000 0.250000
vt 0.593750 0.250000
vt 0.593750 0.500000
vt 0.099031 0.919808
vt 0.102018 0.925781
vt 0.099031 0.925781
vt 0.625000 0.750000
vt 0.593750 1.000000
vt 0.593750 0.750000
vt 0.054233 0.919808
vt 0.078125 0.925781
vt 0.054233 0.925781
vt 0.875000 0.687500
vt 0.625000 0.687500
vt 0.090071 0.925781
vt 0.088578 0.949674
vt 0.088578 0.925781
vt 0.088578 0.919808
vt 0.090071 0.919808
vt 0.500000 0.250000
vt 0.500000 0.500000
vt 0.484375 0.500000
vt 0.484375 0.062500
vt 0.500000 0.062500
vt 0.484375 0.125000
vt 0.090071 0.907862
vt 0.090071 0.913835
vt 0.088578 0.913835
vt 0.875000 0.562500
vt 0.625000 0.625000
vt 0.625000 0.562500
vt 0.375000 0.562500
vt 0.125000 0.625000
vt 0.125000 0.562500
vt 0.102018 0.907862
vt 0.099031 0.913835
vt 0.099031 0.907862
vt 0.593750 0.062500
vt 0.625000 0.125000
vt 0.593750 0.125000
vt 0.546875 0.062500
vt 0.562500 0.062500
vt 0.546875 0.125000
vt 0.094551 0.907862
vt 0.096044 0.907862
vt 0.094551 0.913835
vt 0.096044 0.925781
vt 0.094551 0.949674
vt 0.094551 0.925781
vt 0.094551 0.919808
vt 0.084098 0.907862
vt 0.084098 0.913835
vt 0.081112 0.913835
vt 0.406250 0.062500
vt 0.437500 0.062500
vt 0.406250 0.125000
vt 0.437500 0.187500
vt 0.437500 0.250000
vt 0.406250 0.250000
vt 0.437500 0.500000
vt 0.406250 0.500000
vt 0.081112 0.919808
vt 0.084098 0.925781
vt 0.081112 0.925781
vt 0.084098 0.949674
vt 0.081112 0.949674
vt 0.084098 0.919808
vt 0.406250 0.000000
vt 0.096044 0.913835
vt 0.096044 0.919808
vt 0.546875 0.000000
vt 0.625000 0.000000
vt 0.593750 0.000000
vt 0.484375 0.000000
vt 0.500000 0.000000
vt 0.875000 0.625000
vt 0.375000 0.625000
vt 0.125000 0.687500
vt 0.102018 0.913835
vt 0.102018 0.919808
vt 0.081112 0.901889
vt 0.084098 0.901889
vt 0.081112 0.907862
vt 0.096044 0.901889
vt 0.375000 0.500000
vt 0.125000 0.500000
vt 0.625000 0.500000
vt 0.875000 0.500000
vt 0.088578 0.901889
vt 0.090071 0.901889
vt 0.088578 0.907862
vt 0.625000 0.187500
vt 0.093058 0.901889
vt 0.093058 0.907862
vt 0.091565 0.907862
vt 0.515625 0.000000
vt 0.531250 0.062500
vt 0.515625 0.062500
vt 0.093058 0.913835
vt 0.093058 0.919808
vt 0.091565 0.919808
vt 0.093058 0.925781
vt 0.091565 0.925781
vt 0.093058 0.949674
vt 0.091565 0.949674
vt 0.091565 0.913835
vt 0.515625 0.125000
vt 0.085591 0.901889
vt 0.087085 0.901889
vt 0.085591 0.907862
vt 0.087085 0.913835
vt 0.085591 0.919808
vt 0.085591 0.913835
vt 0.453125 0.000000
vt 0.468750 0.062500
vt 0.453125 0.062500
vt 0.087085 0.907862
vt 0.453125 0.125000
vt 0.468750 0.250000
vt 0.468750 0.500000
vt 0.453125 0.500000
vt 0.087085 0.919808
vt 0.085591 0.925781
vt 0.087085 0.949674
vt 0.085591 0.949674
vt 0.078125 0.907862
vt 0.078125 0.901889
vt 0.375000 0.125000
vt 0.406250 0.187500
vt 0.375000 0.187500
vt 0.375000 0.062500
vt 0.375000 0.000000
vt 0.078125 0.919808
vt 0.078125 0.913835
vt 0.078125 0.949674
vt 0.375000 0.250000
vt 0.094551 0.901889
vt 0.546875 0.250000
vt 0.546875 0.500000
vt 0.531250 0.500000
vt 0.500000 0.125000
vt 0.090071 0.949674
vt 0.515625 0.250000
vt 0.515625 0.500000
vt 0.091565 0.901889
vt 0.468750 0.000000
vt 0.468750 0.125000
vt 0.087085 0.925781
vt 0.437500 0.125000
vt 0.437500 0.000000
vt 0.578125 0.187500
vt 0.578125 0.125000
vt 0.578125 0.000000
vt 0.578125 0.062500
vt 0.578125 1.000000
vt 0.578125 0.750000
vt 0.578125 0.500000
vt 0.578125 0.250000
vt 0.562500 0.250000
vt 0.562500 0.187500
vt 0.562500 0.500000
vt 0.097538 0.925781
vt 0.562500 0.750000
vt 0.562500 1.000000
vt 0.097538 0.913835
vt 0.097538 0.919808
vt 0.097538 0.907862
vt 0.625000 1.000000
vt 0.875000 0.750000
vt 0.625000 0.062500
vt 0.096044 0.949674
vt 0.375000 0.687500
vn -1.0000 0.0000 0.0000
vn -0.0130 0.8887 -0.4584
vn 0.9820 0.0536 0.1812
vn 0.0000 0.2835 0.9590
vn 0.1272 -0.8342 0.5366
vn 0.0000 0.9496 0.3134
vn 0.1405 -0.9216 0.3618
vn 0.7935 0.0000 0.6085
vn 0.0000 0.0000 -1.0000
vn -0.9946 0.0000 0.1037
vn 0.9889 0.0000 -0.1489
vn 0.1080 0.9389 -0.3268
vn 0.0000 -0.9853 -0.1708
vn 0.9997 -0.0190 0.0134
vn -0.6828 -0.6769 -0.2751
vn 0.0000 0.0000 1.0000
vn 0.7338 0.0000 0.6794
vn 0.9858 0.0000 -0.1679
vn -0.9913 0.0351 0.1268
vn 0.0000 -0.6876 -0.7261
vn 0.6019 0.0000 0.7986
vn 0.0000 0.8880 -0.4599
vn 1.0000 0.0000 0.0000
vn -0.6019 0.0000 -0.7986
vn -0.6895 0.0000 -0.7243
vn -0.9660 -0.0733 -0.2481
vn -0.7935 0.0000 -0.6085
vn 0.0000 0.9999 -0.0141
vn 0.1138 -0.9935 0.0000
vn 0.9995 -0.0311 0.0004
vn 0.7981 -0.4143 -0.4376
vn 0.9289 0.0000 -0.3704
vn 0.0000 -0.9240 -0.3824
vn -0.0089 0.8600 -0.5102
vn -0.6742 0.4551 -0.5817
vn 0.0000 0.9812 0.1928
vn -0.8340 0.3474 0.4287
vn -0.7292 0.0000 -0.6843
vn 0.7292 0.0000 0.6843
vn -0.9921 0.0999 -0.0760
vn -0.8536 0.0118 -0.5208
vn 0.7785 -0.6276 0.0000
vn 0.0035 -0.0227 0.9997
vn 0.7032 -0.0212 0.7107
vn 0.0000 -0.9042 -0.4271
vn -0.3498 0.9368 0.0000
vn 0.7667 -0.6046 -0.2162
vn 0.7401 -0.2734 0.6144
vn -0.1027 -0.9945 -0.0190
vn 0.0000 0.9958 -0.0914
vn 0.2256 -0.7793 0.5847
vn 0.9868 -0.0370 -0.1574
vn 0.9393 -0.0784 -0.3340
vn -0.6888 -0.7083 0.1544
vn -0.8480 -0.4180 -0.3258
vn -0.6940 -0.7137 0.0952
vn 0.0852 -0.9937 -0.0725
vn 0.0000 0.7195 -0.6945
vn -0.9624 -0.1133 0.2467
vn -0.2078 0.1449 -0.9674
vn 0.1761 0.9708 0.1630
vn 0.0944 0.9888 0.1152
vn 0.7382 0.6742 -0.0218
vn 0.7360 0.6722 -0.0801
vn 0.8580 0.2886 -0.4250
vn 0.9631 -0.1764 0.2031
vn 0.0950 -0.8288 0.5514
vn 0.0000 -0.9353 0.3538
vn 0.0000 0.9772 -0.2124
vn 0.1138 -0.9930 -0.0321
vn 0.9995 -0.0311 0.0108
vn -0.3516 -0.2501 -0.9021
vn -0.2444 0.8442 -0.4771
vn -0.9684 0.0756 -0.2378
vn 0.1249 0.9664 0.2247
vn 0.7149 -0.6405 -0.2806
vn -0.2019 0.5407 -0.8166
vn 0.0000 -0.0298 0.9996
vn 0.4402 -0.3549 0.8248
vn -0.9963 0.0783 0.0343
vn -0.9335 0.0940 0.3459
vn 0.7595 -0.6123 -0.2196
vn 0.0000 -0.9999 0.0113
vn -0.1499 0.9828 -0.1075
vn 0.1220 -0.8000 0.5875
vn 0.0000 -0.9978 -0.0663
vn 0.0584 0.8157 -0.5755
vn 0.0000 0.5618 -0.8273
vn -0.0848 0.9895 0.1171
vn 0.6120 0.7873 -0.0752
usemtl Material
s off
f 79/1/1 4/2/1 73/3/1
f 73/3/2 4/2/2 8/4/2
f 75/5/3 6/6/3 74/7/3
f 6/8/4 72/9/4 74/10/4
f 27/11/5 5/12/5 1/13/5
f 30/14/6 6/8/6 28/15/6
f 12/16/7 66/17/7 67/18/7
f 67/19/8 29/20/8 12/16/8
f 10/21/9 11/22/9 46/23/9
f 66/24/10 32/25/10 18/26/10
f 37/27/11 17/28/11 48/29/11
f 34/30/12 16/31/12 8/32/12
f 35/33/13 13/34/13 36/35/13
f 8/36/14 75/37/14 78/38/14
f 77/39/1 14/40/1 76/41/1
f 43/42/15 19/43/15 18/44/15
f 44/45/11 38/46/11 22/47/11
f 21/48/16 59/49/16 60/50/16
f 61/51/17 21/48/17 60/50/17
f 39/52/18 26/53/18 55/54/18
f 58/55/10 25/56/10 18/57/10
f 18/58/19 10/59/19 52/60/19
f 52/60/20 23/61/20 53/62/20
f 57/63/21 24/64/21 54/65/21
f 54/65/22 25/66/22 56/67/22
f 55/54/23 24/68/23 57/63/23
f 56/69/24 25/56/24 58/55/24
f 22/70/23 33/71/23 61/51/23
f 59/72/25 19/43/25 43/42/25
f 2/73/26 77/39/26 72/74/26
f 66/75/27 9/76/27 32/25/27
f 17/28/23 67/19/23 48/29/23
f 14/77/28 28/15/28 16/31/28
f 15/78/29 27/79/29 13/34/29
f 75/37/30 16/80/30 28/81/30
f 53/82/31 23/83/31 39/84/31
f 20/85/32 38/46/32 44/45/32
f 7/86/33 36/35/33 3/87/33
f 8/88/34 4/89/34 34/30/34
f 46/90/32 11/91/32 37/92/32
f 76/41/1 34/93/1 79/1/1
f 40/94/32 44/95/32 37/96/32
f 65/97/35 43/98/35 64/99/35
f 42/100/23 41/101/23 63/102/23
f 63/102/8 41/103/8 62/104/8
f 62/104/36 43/105/36 65/106/36
f 37/96/11 44/95/11 42/107/11
f 64/99/37 43/98/37 18/108/37
f 23/109/32 46/110/32 51/111/32
f 48/112/23 70/113/23 26/114/23
f 71/115/38 49/116/38 69/117/38
f 51/118/11 48/112/11 26/114/11
f 69/117/10 49/116/10 18/119/10
f 10/120/9 46/121/9 23/122/9
f 50/123/39 68/124/39 70/113/39
f 68/124/16 45/125/16 71/126/16
f 53/82/23 35/127/23 7/128/23
f 13/129/40 18/130/40 36/131/40
f 56/69/41 27/132/41 1/133/41
f 55/54/42 31/134/42 15/135/42
f 5/12/43 56/67/43 1/136/43
f 31/134/44 54/65/44 5/12/44
f 52/60/45 7/86/45 3/137/45
f 36/131/1 52/60/1 3/137/1
f 58/55/46 13/129/46 27/132/46
f 39/84/47 15/135/47 35/127/47
f 40/94/32 20/138/32 44/95/32
f 22/47/23 41/101/23 42/100/23
f 10/139/9 20/140/9 40/141/9
f 41/101/48 61/51/48 60/50/48
f 60/50/49 43/105/49 41/103/49
f 44/45/11 22/47/11 42/100/11
f 32/25/10 64/99/10 18/142/10
f 37/96/11 42/107/11 17/28/11
f 62/104/16 9/143/16 12/16/16
f 63/102/8 12/16/8 29/20/8
f 10/144/9 40/145/9 11/22/9
f 17/28/23 63/102/23 29/20/23
f 9/76/27 64/99/27 32/25/27
f 11/91/32 40/146/32 37/27/32
f 46/90/32 37/92/32 51/118/32
f 48/29/23 67/19/23 50/123/23
f 45/147/38 66/24/38 49/116/38
f 51/118/11 37/92/11 48/112/11
f 49/116/10 66/24/10 18/148/10
f 50/123/39 67/18/39 47/149/39
f 47/149/50 66/17/50 45/125/50
f 68/124/51 25/66/51 24/64/51
f 24/68/39 70/113/39 68/124/39
f 25/56/10 69/117/10 18/150/10
f 39/52/52 51/111/52 26/53/52
f 25/151/38 71/115/38 69/117/38
f 26/114/23 70/113/23 24/68/23
f 23/109/53 51/111/53 39/52/53
f 76/41/54 81/152/54 18/153/54
f 18/154/55 72/74/55 77/39/55
f 18/155/56 77/39/56 76/41/56
f 74/10/57 18/156/57 75/157/57
f 73/3/58 78/158/58 80/159/58
f 81/152/1 73/3/1 80/159/1
f 81/152/59 10/160/59 18/161/59
f 80/159/60 20/162/60 10/160/60
f 33/71/61 75/163/61 21/48/61
f 21/164/62 18/156/62 19/165/62
f 38/46/63 75/166/63 22/70/63
f 22/70/64 75/167/64 33/71/64
f 20/85/65 78/168/65 38/46/65
f 79/1/1 34/93/1 4/2/1
f 75/5/66 28/81/66 6/6/66
f 6/8/4 2/169/4 72/9/4
f 27/11/67 31/134/67 5/12/67
f 30/14/6 2/170/6 6/8/6
f 12/16/68 9/143/68 66/17/68
f 34/30/69 14/77/69 16/31/69
f 35/33/70 15/78/70 13/34/70
f 8/36/71 16/80/71 75/37/71
f 77/39/1 30/171/1 14/40/1
f 21/48/16 19/172/16 59/49/16
f 61/51/17 33/71/17 21/48/17
f 52/60/72 10/59/72 23/61/72
f 54/65/73 24/64/73 25/66/73
f 55/54/23 26/53/23 24/68/23
f 2/73/74 30/171/74 77/39/74
f 17/28/23 29/20/23 67/19/23
f 14/77/28 30/14/28 28/15/28
f 15/78/29 31/173/29 27/79/29
f 7/86/33 35/33/33 36/35/33
f 76/41/1 14/40/1 34/93/1
f 62/104/75 41/103/75 43/105/75
f 48/112/23 50/123/23 70/113/23
f 71/115/38 45/147/38 49/116/38
f 50/123/39 47/149/39 68/124/39
f 68/124/16 47/149/16 45/125/16
f 53/82/76 39/84/76 35/127/76
f 56/69/77 58/55/77 27/132/77
f 55/54/42 57/63/42 31/134/42
f 5/12/78 54/65/78 56/67/78
f 31/134/79 57/63/79 54/65/79
f 52/60/45 53/62/45 7/86/45
f 36/131/80 18/130/80 52/60/80
f 58/55/81 18/57/81 13/129/81
f 39/84/82 55/54/82 15/135/82
f 22/47/23 61/51/23 41/101/23
f 60/50/83 59/49/83 43/105/83
f 62/104/16 65/106/16 9/143/16
f 63/102/8 62/104/8 12/16/8
f 17/28/23 42/107/23 63/102/23
f 9/76/27 65/97/27 64/99/27
f 47/149/84 67/18/84 66/17/84
f 68/124/85 71/126/85 25/66/85
f 76/41/1 79/1/1 81/152/1
f 74/10/86 72/9/86 18/156/86
f 73/3/87 8/4/87 78/158/87
f 81/152/1 79/1/1 73/3/1
f 81/152/1 80/159/1 10/160/1
f 80/159/88 78/158/88 20/162/88
f 21/164/89 75/157/89 18/156/89
f 38/46/90 78/168/90 75/166/90
