# Blender v3.5.0 OBJ File: 'hole.blend'
# www.blender.org
mtllib miniSword.mtl
o 剣右_立方体.001
v -0.069674 -0.327552 0.012310
v -0.069674 0.656894 -0.332194
v -0.069674 -0.327552 -0.195114
v 0.226568 -0.327552 -0.195114
v 0.226568 -0.327552 0.219735
v 0.226568 -0.327552 0.175142
v 0.226568 0.657974 0.276782
v 0.226568 -0.327552 0.135037
v 0.226568 -0.327552 0.108505
v 0.226568 0.623198 0.164059
v 0.226568 0.656894 0.356815
v -0.069674 -0.327552 0.219735
v 0.226568 -0.956092 0.095300
v 0.226568 -0.575706 0.132785
v 0.226568 -0.997752 0.120415
v 0.226568 -0.856443 0.059929
v 0.226568 -0.576761 0.079504
v 0.226568 -0.912931 0.073460
v -0.069674 1.167796 0.012310
v 0.226568 1.167796 0.012310
v 0.226568 0.656894 -0.332194
v 0.226568 -0.956092 -0.070679
v 0.226568 -1.000138 0.012310
v 0.226568 -0.997752 -0.095792
v 0.226568 -0.914281 0.012310
v 0.226568 -0.912931 -0.048838
v 0.226568 -0.856443 -0.035307
v 0.226568 0.848243 0.012310
v 0.226568 0.623198 -0.139438
v 0.226568 0.638286 -0.182560
v 0.226568 0.657974 -0.252161
v 0.226568 1.050186 0.012310
v -0.069674 0.656894 0.356815
v -0.069674 -0.575706 0.132785
v -0.069674 -0.578092 0.012310
v 0.226568 -0.362808 -0.182761
v 0.226568 -0.327552 -0.150520
v 0.226568 -0.362402 -0.146926
v 0.226568 -0.327552 -0.083884
v 0.226568 -0.410151 -0.079057
v 0.226568 -0.362402 -0.107812
v 0.226568 -0.519459 -0.040757
v 0.226568 -0.577060 -0.039826
v 0.226568 -0.530275 -0.055836
v 0.226568 -0.552907 -0.080176
v 0.226568 -0.575706 -0.108165
v 0.226568 -0.534629 -0.122557
v -0.069674 -1.000138 0.012310
v -0.069674 -0.997752 -0.095792
v 0.226568 -0.362808 0.207381
v 0.226568 -0.362402 0.171548
v 0.226568 -0.530275 0.080458
v 0.226568 -0.577060 0.064447
v 0.226568 -0.519459 0.065378
v 0.226568 -0.410151 0.103678
v 0.226568 -0.389906 0.129642
v 0.226568 -0.411134 0.190450
v 0.226568 -0.552907 0.104798
v 0.226568 -0.534629 0.147179
v -0.069674 -0.997752 0.120415
v -0.069674 -0.575706 -0.108165
v 0.226568 -0.412526 0.313315
v 0.226568 -0.390676 0.197618
v 0.226568 -0.392955 0.398848
v 0.226568 -0.366543 0.536908
v 0.226568 -0.332945 0.695658
v -0.069674 -0.332945 0.695658
v -0.069674 -0.332945 -0.671037
v 0.226568 -0.332945 -0.671037
v 0.226568 -0.412526 -0.288694
v 0.226568 -0.495601 -0.136232
v 0.226568 -0.392955 -0.374228
v 0.226568 -0.366543 -0.512286
v 0.468215 -0.362402 -0.146926
v 0.468215 -0.362402 0.171548
v 0.468215 -0.362402 0.132434
v 0.468215 0.638286 0.207181
v 0.468215 0.657974 0.276782
v 0.468215 -0.912931 0.073460
v 0.468215 -0.552907 0.104798
v 0.468215 -0.956092 0.095300
v 0.468215 1.050186 0.012310
v 0.468215 0.657974 -0.252161
v 0.468215 -0.912931 -0.048838
v 0.468215 -0.957923 0.012310
v 0.468215 -0.956092 -0.070679
v 0.468215 0.927280 0.012310
v 0.468215 0.638286 -0.182560
v 0.468215 -0.390270 -0.137162
v 0.468215 -0.362402 -0.107812
v 0.468215 -0.389906 -0.105020
v 0.468215 -0.530275 -0.055836
v 0.468215 -0.552907 -0.080176
v 0.468215 -0.513879 -0.093852
v 0.468215 -0.390270 0.161784
v 0.468215 -0.389906 0.129642
v 0.468215 -0.530275 0.080458
v 0.468215 -0.513879 0.118474
v 0.226568 -0.957923 0.012310
v 0.468215 -0.392955 0.398848
v 0.468215 -0.366543 0.536908
v 0.468215 -0.366543 -0.512286
v 0.468215 -0.392955 -0.374228
v 0.226568 -0.576271 0.104247
v 0.226568 -0.576271 -0.079627
v 0.226568 -0.327552 -0.110416
v 0.226568 -0.362402 0.132434
v 0.226568 0.638286 0.207181
v 0.226568 0.927280 0.012310
v 0.468215 -0.914281 0.012310
v 0.226568 -0.495601 0.160854
v 0.226568 -0.390676 -0.172996
v 0.226568 -0.389906 -0.105020
v 0.468215 -0.553399 -0.055303
v 0.471625 0.623198 -0.139438
v 0.471625 -0.410151 0.012310
v 0.471625 -0.410151 -0.079057
v 0.471625 0.623198 0.164059
v 0.471625 0.848243 0.012310
v 0.226568 0.848243 0.012310
v 0.471625 -0.410151 0.103678
v 0.471625 -0.519459 0.065378
v 0.471625 -0.520510 0.012310
v 0.471625 -0.857494 0.012310
v 0.471625 -0.856443 -0.035307
v 0.471625 -0.856443 0.059929
v 0.226568 -0.857494 0.012310
v 0.471625 -0.519459 -0.040757
v 0.471625 -0.412526 0.313315
v 0.226568 -0.475198 0.168002
v 0.471625 -0.412526 -0.288694
v 0.226568 -0.411134 -0.165828
v 0.226568 -0.475199 -0.143381
v 0.226568 -0.857494 0.012310
v 0.226568 -0.576761 -0.054884
v 0.468215 -0.553399 0.079925
vt 0.500000 0.125000
vt 0.625000 0.250000
vt 0.500000 0.250000
vt 0.500000 0.500000
vt 0.757151 0.689446
vt 0.757151 0.691531
vt 0.748267 0.691600
vt 0.726562 0.687621
vt 0.726562 0.688861
vt 0.719028 0.688910
vt 0.625000 0.750000
vt 0.500000 1.000000
vt 0.500000 0.750000
vt 0.766850 0.691775
vt 0.766850 0.689446
vt 0.766850 0.689446
vt 0.736261 0.689243
vt 0.736261 0.687950
vt 0.736261 0.687995
vt 0.875000 0.625000
vt 0.625000 0.625000
vt 0.875000 0.500000
vt 0.625000 0.500000
vt 0.766850 0.706515
vt 0.766850 0.699145
vt 0.766850 0.708844
vt 0.736261 0.693359
vt 0.736261 0.698724
vt 0.736261 0.697476
vt 0.718936 0.693359
vt 0.719028 0.697809
vt 0.718510 0.699013
vt 0.748267 0.706690
vt 0.747452 0.708844
vt 0.748215 0.699145
vt 0.625000 0.000000
vt 0.500000 0.000000
vt 0.375000 0.000000
vt 0.375000 0.125000
vt 0.758529 0.708844
vt 0.757151 0.706759
vt 0.758510 0.707042
vt 0.726562 0.697857
vt 0.729778 0.698403
vt 0.727920 0.699349
vt 0.734019 0.697039
vt 0.736261 0.697557
vt 0.734450 0.698278
vt 0.765938 0.706229
vt 0.766850 0.708844
vt 0.765245 0.708844
vt 0.375000 0.500000
vt 0.125000 0.625000
vt 0.125000 0.500000
vt 0.800781 0.666214
vt 0.802159 0.664129
vt 0.802140 0.665931
vt 0.734449 0.688440
vt 0.736261 0.689162
vt 0.734019 0.689680
vt 0.729778 0.688316
vt 0.728992 0.687183
vt 0.729829 0.683661
vt 0.765938 0.692061
vt 0.765245 0.689446
vt 0.375000 0.625000
vt 0.125000 0.750000
vt 0.375000 0.250000
vt 0.732333 0.683661
vt 0.729030 0.683661
vt 0.733130 0.683661
vt 0.765245 0.689446
vt 0.766850 0.689446
vt 0.500000 1.000000
vt 0.375000 1.000000
vt 0.375000 0.750000
vt 0.375000 0.750000
vt 0.375000 0.250000
vt 0.500000 0.500000
vt 0.729829 0.703058
vt 0.733131 0.703058
vt 0.729030 0.703058
vt 0.758529 0.708844
vt 0.757151 0.708844
vt 0.375000 0.500000
vt 0.375000 0.250000
vt 0.375000 0.125000
vt 0.375000 0.750000
vt 0.375000 0.000000
vt 0.500000 0.500000
vt 0.500000 0.331795
vt 0.504269 0.331795
vt 0.154297 0.931707
vt 0.154297 0.934090
vt 0.145718 0.934103
vt 0.625000 0.750000
vt 0.625000 0.918205
vt 0.504269 0.918205
vt 0.163996 0.934361
vt 0.163996 0.931707
vt 0.163996 0.931707
vt 0.625000 0.625000
vt 0.793205 0.750000
vt 0.625000 0.500000
vt 0.793205 0.625000
vt 0.163996 0.948452
vt 0.163996 0.941406
vt 0.163996 0.951105
vt 0.144598 0.951105
vt 0.145636 0.941406
vt 0.145718 0.948710
vt 0.155716 0.951105
vt 0.154297 0.948723
vt 0.155694 0.949004
vt 0.162820 0.948095
vt 0.163996 0.951105
vt 0.162009 0.951105
vt 0.375000 0.625000
vt 0.206795 0.500000
vt 0.375000 0.500000
vt 0.155716 0.931707
vt 0.155694 0.933809
vt 0.162820 0.934717
vt 0.162009 0.931707
vt 0.375000 0.750000
vt 0.206795 0.625000
vt 0.162009 0.931707
vt 0.500000 0.750000
vt 0.500000 0.918205
vt 0.500000 0.918205
vt 0.375000 0.750000
vt 0.375000 0.918205
vt 0.375000 0.918205
vt 0.500000 0.500000
vt 0.500000 0.331795
vt 0.500000 0.331795
vt 0.155716 0.951105
vt 0.154297 0.951105
vt 0.375000 0.500000
vt 0.375000 0.331795
vt 0.375000 0.331795
vt 0.375000 0.750000
vt 0.375000 0.918205
vt 0.375000 0.918205
vt 0.375000 0.331795
vt 0.375000 0.331795
vt 0.503385 0.363684
vt 0.504502 0.407738
vt 0.507664 0.363684
vt 0.504502 0.842262
vt 0.503385 0.886316
vt 0.507664 0.886316
vt 0.717262 0.625000
vt 0.761316 0.750000
vt 0.761316 0.625000
vt 0.761316 0.500000
vt 0.717262 0.500000
vt 0.282738 0.500000
vt 0.238684 0.625000
vt 0.282738 0.625000
vt 0.282738 0.750000
vt 0.238684 0.750000
vt 0.500000 0.842262
vt 0.500000 0.886316
vt 0.500000 0.886316
vt 0.375000 0.886316
vt 0.375000 0.842262
vt 0.375000 0.886316
vt 0.500000 0.363684
vt 0.500000 0.407738
vt 0.500000 0.363684
vt 0.375000 0.407738
vt 0.375000 0.363684
vt 0.375000 0.363684
vt 0.375000 0.842262
vt 0.375000 0.886316
vt 0.375000 0.886316
vt 0.375000 0.407738
vt 0.375000 0.407738
vt 0.375000 0.363684
vt 0.187229 0.899175
vt 0.173081 0.885027
vt 0.173081 0.899175
vt 0.500000 0.250000
vt 0.500000 0.410519
vt 0.509992 0.410519
vt 0.625000 1.000000
vt 0.625000 0.839481
vt 0.509992 0.839481
vt 0.875000 0.625000
vt 0.714481 0.625000
vt 0.714481 0.625000
vt 0.875000 0.500000
vt 0.187229 0.870879
vt 0.173081 0.870879
vt 0.158933 0.870879
vt 0.158933 0.885027
vt 0.125000 0.625000
vt 0.285519 0.500000
vt 0.125000 0.500000
vt 0.125000 0.750000
vt 0.285519 0.750000
vt 0.285519 0.625000
vt 0.158933 0.899175
vt 0.500000 1.000000
vt 0.500000 0.839481
vt 0.500000 0.839481
vt 0.095964 0.962891
vt 0.095964 0.962891
vt 0.060286 0.962891
vt 0.375000 1.000000
vt 0.375000 0.839481
vt 0.375000 0.839481
vt 0.158933 0.899175
vt 0.500000 0.250000
vt 0.500000 0.410519
vt 0.500000 0.410519
vt 0.375000 0.250000
vt 0.375000 0.410519
vt 0.375000 0.410519
vt 0.158933 0.899175
vt 0.158933 0.885027
vt 0.375000 1.000000
vt 0.375000 0.839481
vt 0.375000 0.839481
vt 0.375000 0.250000
vt 0.375000 0.410519
vt 0.375000 0.410519
vt 0.158933 0.870879
vt 0.625000 0.125000
vt 0.747452 0.689446
vt 0.747452 0.699145
vt 0.718936 0.693359
vt 0.718510 0.687706
vt 0.718424 0.693359
vt 0.625000 1.000000
vt 0.766850 0.691744
vt 0.766850 0.699145
vt 0.736261 0.693359
vt 0.875000 0.750000
vt 0.766850 0.706546
vt 0.736261 0.693359
vt 0.736261 0.698769
vt 0.726562 0.699098
vt 0.757151 0.708844
vt 0.729829 0.703058
vt 0.728992 0.699536
vt 0.729030 0.703058
vt 0.732333 0.703058
vt 0.800781 0.664129
vt 0.732333 0.683661
vt 0.733130 0.683661
vt 0.727920 0.687370
vt 0.758529 0.689446
vt 0.500000 0.750000
vt 0.375000 1.000000
vt 0.500000 0.250000
vt 0.375000 0.500000
vt 0.375000 1.000000
vt 0.625000 0.331795
vt 0.144598 0.931707
vt 0.144598 0.941406
vt 0.163996 0.934316
vt 0.163996 0.941406
vt 0.793205 0.500000
vt 0.163996 0.948497
vt 0.154297 0.951105
vt 0.206795 0.750000
vt 0.163996 0.931707
vt 0.500000 0.918205
vt 0.500000 0.750000
vt 0.375000 0.331795
vt 0.375000 0.500000
vt 0.375000 0.918205
vt 0.500000 0.407738
vt 0.625000 0.407738
vt 0.625000 0.363684
vt 0.625000 0.886316
vt 0.625000 0.842262
vt 0.500000 0.842262
vt 0.500000 0.886316
vt 0.717262 0.750000
vt 0.238684 0.500000
vt 0.500000 0.842262
vt 0.375000 0.886316
vt 0.375000 0.842262
vt 0.375000 0.842262
vt 0.500000 0.363684
vt 0.500000 0.407738
vt 0.375000 0.407738
vt 0.375000 0.842262
vt 0.375000 0.363684
vt 0.375000 0.407738
vt 0.187229 0.885027
vt 0.625000 0.410519
vt 0.625000 0.250000
vt 0.714481 0.750000
vt 0.875000 0.750000
vt 0.714481 0.500000
vt 0.285519 0.625000
vt 0.500000 0.839481
vt 0.500000 1.000000
vt 0.375000 0.410519
vt 0.375000 0.250000
vt 0.375000 0.839481
vt 0.375000 1.000000
vn -1.0000 0.0000 0.0000
vn -0.0000 -0.1379 -0.9904
vn 1.0000 0.0000 0.0000
vn -0.0000 -0.1379 0.9904
vn 0.0000 0.5591 0.8291
vn 0.0000 0.5591 -0.8291
vn 1.0000 -0.0000 0.0002
vn 0.0000 -0.9998 -0.0221
vn 0.0000 -0.9998 0.0221
vn 0.0000 0.9999 0.0113
vn 0.0000 -0.9182 0.3960
vn 0.0000 0.9999 -0.0113
vn 0.0000 -0.9182 -0.3960
vn 0.0000 -0.0293 0.9996
vn 0.0000 -0.0293 -0.9996
vn -0.0000 -0.1026 -0.9947
vn -0.0000 -0.1026 0.9947
vn 0.0000 -0.9183 -0.3960
vn -0.0000 -0.0236 0.9997
vn 0.0000 -0.0235 -0.9997
vn 0.0000 0.0745 0.9972
vn 0.0000 0.0745 -0.9972
vn 0.0000 -0.5591 -0.8291
vn 0.0000 -0.5591 0.8291
vn 0.0000 0.9998 0.0221
vn 0.0000 0.9998 -0.0221
vn 0.0000 -0.9999 -0.0113
vn 0.0000 0.9182 -0.3960
vn 0.0000 -0.9999 0.0113
vn 0.0000 0.9182 0.3960
vn 0.0000 0.0180 -0.9998
vn -0.0001 0.0192 -0.9998
vn 0.0014 0.0235 0.9997
vn 0.0000 0.0231 0.9997
vn 0.0010 0.0211 0.9998
vn 0.0000 -0.0583 -0.9983
vn 0.0000 -0.0583 0.9983
vn 0.0000 0.4432 0.8964
vn 0.0000 0.0000 0.8964
vn 0.0000 -0.0162 0.9999
vn 0.0000 -0.0162 -0.9999
vn 0.7247 0.0000 0.4467
vn 0.5070 -0.0000 0.4999
vn 0.0000 -0.9183 0.3960
vn 0.0000 -0.0235 0.9997
vn 0.0000 0.1010 0.9949
vn 0.0000 0.1010 -0.9949
vn 0.0006 0.0220 -0.9998
vn -0.0000 0.0205 -0.9998
vn 0.0000 0.0231 -0.9997
vn -0.0005 0.0183 0.9998
vn 0.0000 0.0180 0.9998
vn 0.0000 0.0000 -0.0000
vn 0.0000 -1.0000 -0.0000
usemtl Material.001
s 1
f 1/1/1 2/2/1 3/3/1
f 2/2/2 4/4/2 3/3/2
f 5/5/3 6/6/3 7/7/3
f 8/8/3 9/9/3 10/10/3
f 11/11/4 12/12/4 5/13/4
f 13/14/3 14/15/3 15/16/3
f 16/17/3 17/18/3 18/19/3
f 19/20/5 11/11/5 20/21/5
f 2/22/6 20/21/6 21/23/6
f 22/24/3 23/25/3 24/26/3
f 25/27/7 26/28/3 27/29/3
f 28/30/3 29/31/3 30/32/3
f 31/33/3 21/34/3 32/35/3
f 33/36/1 1/1/1 12/37/1
f 34/38/1 1/1/1 35/39/1
f 36/40/3 37/41/3 38/42/3
f 39/43/3 40/44/3 41/45/3
f 42/46/3 43/47/3 44/48/3
f 45/49/3 46/50/3 47/51/3
f 24/52/8 48/53/8 49/54/8
f 6/55/3 50/56/3 51/57/3
f 52/58/3 53/59/3 54/60/3
f 55/61/3 56/62/3 57/63/3
f 14/15/3 58/64/3 59/65/3
f 23/66/9 60/67/9 48/53/9
f 1/1/1 61/68/1 35/39/1
f 62/69/3 63/70/3 64/71/3
f 65/72/3 5/5/3 66/73/3
f 67/74/10 5/13/10 12/12/10
f 34/75/1 67/74/1 12/12/1
f 66/76/11 34/75/11 14/77/11
f 3/3/1 68/78/1 61/68/1
f 69/79/12 3/3/12 4/4/12
f 70/80/3 71/81/3 72/82/3
f 73/83/3 46/50/3 69/84/3
f 68/78/13 46/85/13 61/68/13
f 35/39/1 49/86/1 48/87/1
f 34/75/14 15/88/14 14/77/14
f 46/85/15 49/86/15 61/68/15
f 35/39/1 60/89/1 34/38/1
f 74/90/16 38/91/16 37/92/16
f 75/93/3 76/94/3 77/95/3
f 78/96/17 7/97/17 6/98/17
f 79/99/3 80/100/3 81/101/3
f 82/102/5 7/103/5 78/96/5
f 83/104/6 32/105/6 82/102/6
f 84/106/3 85/107/3 86/108/3
f 83/109/3 87/110/3 88/111/3
f 89/112/3 90/113/3 91/114/3
f 92/115/3 93/116/3 94/117/3
f 85/118/8 22/119/8 86/120/8
f 76/94/3 95/121/3 96/122/3
f 80/100/3 97/123/3 98/124/3
f 81/125/9 99/126/9 85/118/9
f 80/100/3 98/124/3 100/127/3
f 75/128/10 51/129/10 50/130/10
f 101/131/11 65/132/11 59/133/11
f 102/134/12 73/135/12 36/136/12
f 103/137/3 93/116/3 102/138/3
f 93/139/13 45/140/18 47/141/13
f 80/142/19 58/143/19 104/144/19
f 86/120/20 22/145/20 105/146/20
f 41/147/21 90/148/21 106/149/21
f 76/150/22 107/151/22 8/152/22
f 87/153/23 108/154/23 109/155/23
f 87/153/24 30/156/24 88/157/24
f 84/158/25 25/159/25 110/160/25
f 79/161/26 25/159/26 18/162/26
f 100/163/27 64/164/27 63/165/27
f 111/166/28 98/167/28 52/168/28
f 112/169/29 89/170/29 113/171/29
f 103/172/30 72/173/30 71/174/30
f 79/175/31 18/176/31 17/177/32
f 114/178/33 92/179/34 44/180/35
f 115/181/3 116/182/3 117/183/3
f 117/184/36 40/185/36 39/186/36
f 118/187/37 10/188/37 9/189/37
f 119/190/38 28/191/39 120/192/38
f 115/193/6 28/191/6 119/190/6
f 116/182/3 118/194/3 121/195/3
f 116/182/3 122/196/3 123/197/3
f 124/198/8 27/199/8 125/200/8
f 126/201/9 16/202/9 127/203/9
f 128/204/3 116/182/3 123/197/3
f 121/205/10 55/206/10 57/207/10
f 121/208/3 129/209/3 122/210/3
f 129/211/11 62/212/11 130/213/11
f 128/204/3 131/214/3 117/183/3
f 131/215/12 70/216/12 132/217/12
f 128/218/13 42/219/13 133/220/13
f 125/221/3 123/197/3 124/222/3
f 122/223/40 54/224/40 53/225/40
f 125/226/41 27/227/41 43/228/41
f 126/229/3 123/197/3 122/196/3
f 1/1/1 19/230/1 2/2/1
f 2/2/2 21/23/2 4/4/2
f 7/7/3 32/35/3 11/231/3
f 32/35/3 20/232/3 11/231/3
f 11/231/3 5/5/3 7/7/3
f 10/10/3 120/233/42 108/234/3
f 120/233/42 109/235/3 108/234/3
f 108/234/3 8/8/3 10/10/3
f 11/11/4 33/236/4 12/12/4
f 13/14/3 104/237/3 14/15/3
f 15/16/3 23/25/3 13/14/3
f 23/25/3 99/238/3 13/14/3
f 16/17/3 53/59/3 17/18/3
f 18/19/3 25/27/7 16/17/3
f 25/27/7 127/239/3 16/17/3
f 19/20/5 33/240/5 11/11/5
f 2/22/6 19/20/6 20/21/6
f 22/24/3 99/238/3 23/25/3
f 24/26/3 46/50/3 22/24/3
f 46/50/3 105/241/3 22/24/3
f 134/242/43 127/239/3 25/27/7
f 26/28/3 135/243/3 27/29/3
f 135/243/3 43/47/3 27/29/3
f 27/29/3 134/242/43 25/27/7
f 29/31/3 39/43/3 106/244/3
f 109/235/3 120/233/42 28/30/3
f 29/31/3 106/244/3 30/32/3
f 109/235/3 28/30/3 30/32/3
f 31/33/3 37/41/3 4/245/3
f 21/34/3 20/232/3 32/35/3
f 31/33/3 4/245/3 21/34/3
f 33/36/1 19/230/1 1/1/1
f 34/38/1 12/37/1 1/1/1
f 36/40/3 4/245/3 37/41/3
f 40/44/3 132/246/3 113/247/3
f 132/246/3 112/248/3 113/247/3
f 113/247/3 41/45/3 40/44/3
f 41/45/3 106/244/3 39/43/3
f 43/47/3 135/243/3 44/48/3
f 44/48/3 71/81/3 42/46/3
f 71/81/3 133/249/3 42/46/3
f 45/49/3 105/241/3 46/50/3
f 24/52/8 23/66/8 48/53/8
f 6/55/3 5/250/3 50/56/3
f 130/251/3 111/252/3 54/60/3
f 111/252/3 52/58/3 54/60/3
f 52/58/3 17/18/3 53/59/3
f 55/61/3 9/9/3 107/253/3
f 9/9/3 8/8/3 107/253/3
f 55/61/3 107/253/3 56/62/3
f 56/62/3 63/70/3 57/63/3
f 14/15/3 104/237/3 58/64/3
f 23/66/9 15/88/9 60/67/9
f 1/1/1 3/3/1 61/68/1
f 62/69/3 57/63/3 63/70/3
f 64/71/3 111/252/3 62/69/3
f 111/252/3 130/251/3 62/69/3
f 65/72/3 50/254/3 5/5/3
f 66/73/3 14/15/3 65/72/3
f 14/15/3 59/65/3 65/72/3
f 67/74/10 66/255/10 5/13/10
f 66/76/11 67/256/11 34/75/11
f 69/79/12 68/257/12 3/3/12
f 70/80/3 133/249/3 71/81/3
f 72/82/3 112/248/3 70/80/3
f 112/248/3 132/246/3 70/80/3
f 73/83/3 47/51/3 46/50/3
f 69/84/3 4/245/3 73/83/3
f 4/245/3 36/40/3 73/83/3
f 68/78/13 69/258/13 46/85/13
f 35/39/1 61/68/1 49/86/1
f 34/75/14 60/259/14 15/88/14
f 46/85/15 24/52/15 49/86/15
f 35/39/1 48/87/1 60/89/1
f 37/92/16 31/260/16 83/104/16
f 83/104/16 74/90/16 37/92/16
f 77/95/3 87/110/3 78/261/3
f 87/110/3 82/262/3 78/261/3
f 78/261/3 75/93/3 77/95/3
f 6/98/17 51/129/17 75/128/17
f 75/128/17 78/96/17 6/98/17
f 79/99/3 136/263/3 80/100/3
f 81/101/3 85/107/3 79/99/3
f 85/107/3 110/264/3 79/99/3
f 82/102/5 32/105/5 7/103/5
f 83/104/6 31/265/6 32/105/6
f 84/106/3 110/264/3 85/107/3
f 86/108/3 93/116/3 84/106/3
f 93/116/3 114/266/3 84/106/3
f 88/111/3 90/113/3 74/267/3
f 83/109/3 82/262/3 87/110/3
f 88/111/3 74/267/3 83/109/3
f 89/112/3 74/267/3 90/113/3
f 92/115/3 114/266/3 93/116/3
f 85/118/8 99/126/8 22/119/8
f 76/94/3 75/93/3 95/121/3
f 80/100/3 136/263/3 97/123/3
f 81/125/9 13/268/9 99/126/9
f 95/121/3 75/93/3 100/127/3
f 75/93/3 101/269/3 100/127/3
f 101/269/3 80/100/3 100/127/3
f 50/130/10 65/270/10 101/271/10
f 101/271/10 75/128/10 50/130/10
f 59/133/11 58/143/44 80/142/11
f 80/142/11 101/131/11 59/133/11
f 36/136/12 38/91/12 74/90/12
f 74/90/12 102/134/12 36/136/12
f 103/137/3 94/117/3 93/116/3
f 102/138/3 74/267/3 103/137/3
f 74/267/3 89/112/3 103/137/3
f 47/141/13 73/272/13 102/273/13
f 102/273/13 93/139/13 47/141/13
f 104/144/19 13/274/45 81/125/45
f 81/125/45 80/142/19 104/144/19
f 105/146/20 45/140/20 93/139/20
f 93/139/20 86/120/20 105/146/20
f 41/147/46 113/171/46 91/275/46
f 90/148/21 88/276/21 106/149/21
f 88/276/21 30/277/21 106/149/21
f 41/147/46 91/275/46 90/148/46
f 8/152/22 108/278/22 77/279/22
f 76/150/47 96/280/47 56/281/47
f 8/152/22 77/279/22 76/150/22
f 76/150/47 56/281/47 107/151/47
f 87/153/23 77/282/23 108/154/23
f 87/153/24 109/155/24 30/156/24
f 84/158/25 26/283/25 25/159/25
f 79/161/26 110/160/26 25/159/26
f 63/165/27 56/281/27 95/284/27
f 56/281/27 96/280/27 95/284/27
f 95/284/27 100/163/27 63/165/27
f 111/166/28 64/285/28 100/286/28
f 98/167/28 97/287/28 52/168/28
f 111/166/28 100/286/28 98/167/28
f 112/169/29 72/288/29 103/289/29
f 89/170/29 91/275/29 113/171/29
f 112/169/29 103/289/29 89/170/29
f 71/174/30 44/180/30 94/290/30
f 44/180/30 92/179/30 94/290/30
f 94/290/30 103/172/30 71/174/30
f 17/177/32 52/168/48 136/291/49
f 52/168/48 97/287/50 136/291/49
f 136/291/49 79/175/31 17/177/32
f 44/180/35 26/292/51 114/178/33
f 26/292/52 84/293/52 114/178/52
f 115/181/3 119/294/3 116/182/3
f 39/186/36 29/295/36 115/296/36
f 115/296/36 117/184/36 39/186/36
f 9/189/37 55/206/37 121/205/37
f 121/205/37 118/187/37 9/189/37
f 10/297/5 118/298/5 120/192/5
f 118/298/5 119/190/5 120/192/5
f 115/193/6 29/299/6 28/191/6
f 116/182/3 119/294/3 118/194/3
f 116/182/3 121/195/3 122/196/3
f 124/198/8 134/300/8 27/199/8
f 127/203/53 134/300/54 124/198/54
f 124/198/9 126/201/9 127/203/9
f 128/204/3 117/183/3 116/182/3
f 62/301/10 129/302/10 57/207/10
f 129/302/10 121/205/10 57/207/10
f 130/213/11 54/224/11 122/223/11
f 122/223/11 129/211/11 130/213/11
f 132/217/12 40/185/12 117/184/12
f 117/184/12 131/215/12 132/217/12
f 133/220/13 70/303/13 131/304/13
f 131/304/13 128/218/13 133/220/13
f 125/221/3 128/204/3 123/197/3
f 16/305/40 126/306/40 53/225/40
f 126/306/40 122/223/40 53/225/40
f 43/228/41 42/219/41 128/218/41
f 128/218/41 125/226/41 43/228/41
f 126/229/3 124/222/3 123/197/3
