# Blender v3.5.0 OBJ File: 'hole.blend'
# www.blender.org
mtllib miniHand.mtl
o パンチ左_立方体.002
v 0.096932 -0.414557 0.672971
v 0.096932 -0.579394 0.596561
v 0.096932 -0.467128 0.654467
v 0.454575 -0.451358 0.666725
v 0.445921 -0.059880 0.584003
v 0.295623 0.598685 0.525784
v 0.295623 0.561066 0.653039
v -0.062016 0.598685 0.525784
v 0.067342 0.401803 -0.717788
v -0.114724 0.639677 -0.586614
v 0.242915 0.639677 -0.543683
v 0.096932 0.099985 0.805228
v 0.454575 0.099985 0.805228
v 0.242915 0.820487 0.001188
v 0.650782 0.401803 -0.114232
v 0.293143 0.401803 -0.157166
v 0.650782 0.401803 0.001188
v 0.096932 -0.734568 0.003843
v 0.454575 -0.734568 -0.171944
v 0.454575 -0.734568 0.001187
v 0.232006 -0.059880 0.569571
v 0.293143 0.401803 -0.041746
v 0.562470 -0.521563 0.000792
v 0.650782 -0.059880 -0.171944
v 0.650782 -0.059880 0.001188
v 0.096932 -0.307554 0.749143
v 0.454575 -0.059880 0.802968
v 0.454575 -0.307554 -0.674856
v 0.096932 -0.307554 -0.674856
v 0.067342 -0.059880 -0.717788
v 0.454575 -0.656981 0.521667
v 0.096932 0.063144 0.689385
v 0.096932 -0.059880 0.672971
v 0.096932 -0.059880 0.802968
v 0.382273 0.427480 0.252179
v -0.114724 0.799930 0.495458
v 0.562470 -0.521563 0.288551
v 0.650782 -0.059880 0.407422
v 0.562470 -0.521563 0.468583
v 0.242915 0.799930 0.468583
v 0.242915 0.799930 0.256391
v -0.114724 0.799930 0.256391
v 0.650782 0.453159 0.346260
v 0.562470 -0.468059 -0.509755
v 0.650782 -0.059880 -0.569894
v 0.650782 -0.059880 -0.391903
v 0.293143 0.401803 -0.651413
v 0.293143 0.401803 -0.531133
v 0.096932 -0.579394 -0.555783
v 0.454575 -0.579394 -0.555783
v 0.454575 -0.734568 -0.391903
v 0.650782 0.401803 -0.569894
v 0.242915 0.643783 -0.405814
v 0.650782 0.401803 -0.449615
v -0.114724 0.643783 -0.405814
v 0.650782 0.453159 0.468583
v -0.062016 0.561066 0.653039
v -0.114724 0.820487 0.001188
v 0.543290 -0.059880 -0.674856
v 0.454575 -0.734568 0.407422
v 0.454575 -0.467128 -0.608816
v 0.096932 -0.467128 -0.608816
v 0.454575 -0.734568 0.173131
v -0.114724 0.820487 0.174974
v 0.293143 0.401803 0.115420
v 0.650782 -0.059880 0.173131
v 0.650782 0.401803 0.115420
v 0.650782 0.401803 0.230840
v 0.242915 0.820487 0.174974
v 0.562470 -0.521563 -0.281924
v 0.650782 0.401803 -0.334195
v -0.114724 0.743944 -0.328805
v 0.293143 0.401803 -0.415713
v 0.293143 0.401803 -0.272586
v 0.650782 0.401803 -0.229655
v 0.242915 0.743944 -0.285874
v -0.114724 0.743944 -0.125771
v 0.543290 0.401803 -0.674856
v 0.242915 0.743944 -0.125771
v 0.096932 -0.468059 0.584003
v 0.096932 -0.656981 0.521667
vt 0.593750 0.187500
vt 0.593750 0.250000
vt 0.625000 0.250000
vt 0.593750 0.500000
vt 0.099031 0.919808
vt 0.099031 0.925781
vt 0.102018 0.925781
vt 0.625000 0.750000
vt 0.593750 0.750000
vt 0.593750 1.000000
vt 0.054233 0.919808
vt 0.054233 0.925781
vt 0.078125 0.925781
vt 0.875000 0.687500
vt 0.625000 0.687500
vt 0.090071 0.925781
vt 0.088578 0.925781
vt 0.088578 0.949674
vt 0.088578 0.919808
vt 0.090071 0.919808
vt 0.500000 0.250000
vt 0.484375 0.500000
vt 0.500000 0.500000
vt 0.484375 0.062500
vt 0.484375 0.125000
vt 0.500000 0.062500
vt 0.090071 0.907862
vt 0.088578 0.913835
vt 0.090071 0.913835
vt 0.875000 0.562500
vt 0.625000 0.562500
vt 0.625000 0.625000
vt 0.375000 0.562500
vt 0.125000 0.562500
vt 0.125000 0.625000
vt 0.102018 0.907862
vt 0.099031 0.907862
vt 0.099031 0.913835
vt 0.593750 0.062500
vt 0.593750 0.125000
vt 0.625000 0.125000
vt 0.546875 0.062500
vt 0.546875 0.125000
vt 0.562500 0.062500
vt 0.094551 0.907862
vt 0.094551 0.913835
vt 0.096044 0.907862
vt 0.096044 0.925781
vt 0.094551 0.925781
vt 0.094551 0.949674
vt 0.094551 0.919808
vt 0.084098 0.907862
vt 0.081112 0.913835
vt 0.084098 0.913835
vt 0.406250 0.062500
vt 0.406250 0.125000
vt 0.437500 0.062500
vt 0.437500 0.187500
vt 0.406250 0.250000
vt 0.437500 0.250000
vt 0.406250 0.500000
vt 0.437500 0.500000
vt 0.081112 0.919808
vt 0.081112 0.925781
vt 0.084098 0.925781
vt 0.081112 0.949674
vt 0.084098 0.949674
vt 0.084098 0.919808
vt 0.406250 0.000000
vt 0.096044 0.913835
vt 0.096044 0.919808
vt 0.546875 0.000000
vt 0.625000 0.000000
vt 0.593750 0.000000
vt 0.484375 0.000000
vt 0.500000 0.000000
vt 0.875000 0.625000
vt 0.375000 0.625000
vt 0.125000 0.687500
vt 0.102018 0.919808
vt 0.102018 0.913835
vt 0.081112 0.901889
vt 0.081112 0.907862
vt 0.084098 0.901889
vt 0.096044 0.901889
vt 0.375000 0.500000
vt 0.125000 0.500000
vt 0.625000 0.500000
vt 0.875000 0.500000
vt 0.088578 0.901889
vt 0.088578 0.907862
vt 0.090071 0.901889
vt 0.625000 0.187500
vt 0.093058 0.901889
vt 0.091565 0.907862
vt 0.093058 0.907862
vt 0.515625 0.000000
vt 0.515625 0.062500
vt 0.531250 0.062500
vt 0.093058 0.913835
vt 0.091565 0.919808
vt 0.093058 0.919808
vt 0.091565 0.925781
vt 0.093058 0.925781
vt 0.091565 0.949674
vt 0.093058 0.949674
vt 0.091565 0.913835
vt 0.515625 0.125000
vt 0.085591 0.901889
vt 0.085591 0.907862
vt 0.087085 0.901889
vt 0.087085 0.913835
vt 0.085591 0.913835
vt 0.085591 0.919808
vt 0.453125 0.000000
vt 0.453125 0.062500
vt 0.468750 0.062500
vt 0.087085 0.907862
vt 0.453125 0.125000
vt 0.468750 0.250000
vt 0.453125 0.500000
vt 0.468750 0.500000
vt 0.087085 0.919808
vt 0.085591 0.925781
vt 0.085591 0.949674
vt 0.087085 0.949674
vt 0.078125 0.901889
vt 0.078125 0.907862
vt 0.375000 0.125000
vt 0.375000 0.187500
vt 0.406250 0.187500
vt 0.375000 0.000000
vt 0.375000 0.062500
vt 0.078125 0.913835
vt 0.078125 0.919808
vt 0.078125 0.949674
vt 0.375000 0.250000
vt 0.094551 0.901889
vt 0.546875 0.250000
vt 0.531250 0.500000
vt 0.546875 0.500000
vt 0.500000 0.125000
vt 0.090071 0.949674
vt 0.515625 0.250000
vt 0.515625 0.500000
vt 0.091565 0.901889
vt 0.468750 0.000000
vt 0.468750 0.125000
vt 0.087085 0.925781
vt 0.437500 0.125000
vt 0.437500 0.000000
vt 0.578125 0.125000
vt 0.578125 0.187500
vt 0.578125 0.000000
vt 0.578125 0.062500
vt 0.578125 0.750000
vt 0.578125 1.000000
vt 0.578125 0.250000
vt 0.578125 0.500000
vt 0.562500 0.187500
vt 0.562500 0.250000
vt 0.562500 0.500000
vt 0.097538 0.925781
vt 0.562500 0.750000
vt 0.562500 1.000000
vt 0.097538 0.913835
vt 0.097538 0.919808
vt 0.097538 0.907862
vt 0.625000 1.000000
vt 0.875000 0.750000
vt 0.625000 0.062500
vt 0.096044 0.949674
vt 0.375000 0.687500
vn -1.0000 0.0000 0.0000
vn -0.0102 -0.4584 0.8887
vn 0.9714 0.2276 0.0673
vn 0.0000 0.9590 0.2835
vn 0.1004 0.5383 -0.8367
vn 0.0000 0.3134 0.9496
vn 0.1111 0.3632 -0.9251
vn 0.7163 0.6978 0.0000
vn -0.0000 -1.0000 -0.0000
vn -0.9913 0.1313 0.0000
vn 0.9822 -0.1879 -0.0000
vn 0.0852 -0.3275 0.9410
vn 0.0000 -0.1708 -0.9853
vn 0.9993 0.0149 -0.0341
vn 0.9996 0.0170 -0.0241
vn 0.9994 0.0159 -0.0295
vn -0.5926 -0.3033 -0.7462
vn 0.0000 1.0000 0.0000
vn 0.6477 0.7619 0.0000
vn 0.9774 -0.2115 0.0000
vn -0.9861 0.1602 0.0444
vn 0.0000 -0.7261 -0.6876
vn 0.5102 0.8600 0.0000
vn 0.0000 -0.4599 0.8880
vn 1.0000 0.0000 0.0000
vn -0.5102 -0.8600 0.0000
vn -0.5997 -0.8002 -0.0000
vn -0.9467 -0.3089 -0.0913
vn -0.7163 -0.6978 0.0000
vn 0.0000 -0.0141 0.9999
vn 0.0898 0.0000 -0.9960
vn 0.9992 0.0006 -0.0395
vn 0.7217 -0.5026 -0.4759
vn 0.8921 -0.4519 -0.0000
vn 0.0000 -0.3824 -0.9240
vn -0.0070 -0.5102 0.8600
vn -0.5835 -0.6396 0.5004
vn 0.0000 0.1928 0.9812
vn -0.7655 0.4999 0.4051
vn -0.6427 -0.7661 -0.0000
vn 0.6427 0.7661 0.0000
vn -0.9873 -0.0961 0.1263
vn -0.7903 -0.6126 0.0139
vn 0.6986 0.0000 -0.7155
vn 0.0027 0.9997 -0.0241
vn 0.0027 0.9997 -0.0227
vn 0.0003 0.9996 -0.0282
vn 0.6143 0.7887 -0.0235
vn 0.0000 -0.4271 -0.9042
vn -0.2820 -0.0000 0.9594
vn 0.6776 -0.2484 -0.6922
vn 0.6849 -0.2453 -0.6861
vn 0.6836 -0.2458 -0.6872
vn 0.6548 0.6905 -0.3073
vn -0.0810 -0.0190 -0.9965
vn 0.0000 -0.0914 0.9958
vn 0.1794 0.5904 -0.7869
vn 0.9790 -0.1984 -0.0466
vn 0.9071 -0.4098 -0.0962
vn -0.5989 0.1705 -0.7824
vn -0.7832 -0.3823 -0.4904
vn -0.6045 0.1054 -0.7896
vn 0.0671 -0.0726 -0.9951
vn 0.0000 -0.6945 0.7195
vn -0.9414 0.3065 -0.1408
vn -0.1649 -0.9754 0.1461
vn 0.1394 0.1640 0.9766
vn 0.0744 0.1154 0.9905
vn 0.6527 -0.0245 0.7572
vn 0.6502 -0.0899 0.7544
vn 0.7959 -0.5008 0.3401
vn 0.9424 0.2525 -0.2193
vn 0.0749 0.5524 -0.8302
vn 0.0000 0.3538 -0.9353
vn 0.0000 -0.2124 0.9772
vn 0.0898 -0.0322 -0.9954
vn 0.9991 0.0137 -0.0395
vn -0.2835 -0.9241 -0.2562
vn -0.1946 -0.4826 0.8539
vn -0.9504 -0.2965 0.0943
vn 0.0986 0.2254 0.9693
vn 0.6270 -0.3126 -0.7136
vn -0.1602 -0.8231 0.5449
vn 0.0000 0.9996 -0.0298
vn 0.3601 0.8570 -0.3687
vn -0.9941 0.0435 0.0993
vn -0.8988 0.4231 0.1150
vn 0.6767 -0.2485 -0.6930
vn 0.0000 0.0113 -0.9999
vn -0.1185 -0.1080 0.9871
vn 0.0963 0.5892 -0.8022
vn 0.0000 -0.0663 -0.9978
vn 0.0460 -0.5758 0.8163
vn 0.0000 -0.8273 0.5618
vn -0.0669 0.1172 0.9909
vn 0.5202 -0.0812 0.8502
usemtl Material.004
s 1
f 1/1/1 2/2/1 3/3/1
f 2/2/2 4/4/2 3/3/2
f 5/5/3 6/6/3 7/7/3
f 7/8/4 6/9/4 8/10/4
f 9/11/5 10/12/5 11/13/5
f 12/14/6 13/15/6 7/8/6
f 14/16/7 15/17/7 16/18/7
f 15/19/8 14/16/8 17/20/8
f 18/21/9 19/22/9 20/23/9
f 16/24/10 21/25/10 22/26/10
f 23/27/11 24/28/11 25/29/11
f 26/30/12 4/31/12 27/32/12
f 28/33/13 29/34/13 30/35/13
f 4/36/14 31/37/15 5/38/16
f 32/39/1 33/40/1 34/41/1
f 35/42/17 21/43/17 36/44/17
f 37/45/11 38/46/11 39/47/11
f 40/48/18 41/49/18 42/50/18
f 43/51/19 41/49/19 40/48/19
f 44/52/20 45/53/20 46/54/20
f 47/55/10 21/56/10 48/57/10
f 21/58/21 49/59/21 18/60/21
f 49/59/22 50/61/22 51/62/22
f 52/63/23 53/64/23 54/65/23
f 53/64/24 55/66/24 48/67/24
f 45/53/25 52/63/25 54/68/25
f 55/69/26 47/55/26 48/57/26
f 38/70/25 43/51/25 56/71/25
f 42/72/27 35/42/27 36/44/27
f 57/73/28 8/74/28 32/39/28
f 16/75/29 22/26/29 58/76/29
f 25/29/25 24/28/25 15/19/25
f 34/77/30 27/32/30 13/15/30
f 59/78/31 30/35/31 9/79/31
f 5/38/32 13/80/32 27/81/32
f 50/82/33 44/83/33 51/84/33
f 60/85/34 37/45/34 39/47/34
f 61/86/35 62/87/35 29/34/35
f 4/88/36 26/30/36 3/89/36
f 19/90/34 23/91/34 20/92/34
f 33/40/1 1/1/1 26/93/1
f 63/94/34 23/95/34 37/96/34
f 64/97/37 65/98/37 35/99/37
f 66/100/25 67/101/25 68/102/25
f 67/101/8 69/103/8 68/104/8
f 69/103/38 64/105/38 35/106/38
f 23/95/11 66/107/11 37/96/11
f 65/98/39 21/108/39 35/99/39
f 51/109/34 70/110/34 19/111/34
f 24/112/25 46/113/25 71/114/25
f 72/115/40 73/116/40 74/117/40
f 70/118/11 46/113/11 24/112/11
f 73/116/10 21/119/10 74/117/10
f 18/120/9 51/121/9 19/122/9
f 75/123/41 71/114/41 76/124/41
f 76/124/18 72/125/18 77/126/18
f 50/82/25 61/127/25 28/128/25
f 30/129/42 29/130/42 21/131/42
f 55/69/43 10/132/43 9/133/43
f 45/53/44 59/134/44 78/135/44
f 11/13/45 10/136/46 55/66/47
f 78/135/48 11/13/48 53/64/48
f 49/59/49 62/137/49 61/86/49
f 29/130/1 62/137/1 49/59/1
f 47/55/50 9/133/50 30/129/50
f 44/83/51 28/128/52 59/134/53
f 63/94/34 37/96/34 60/138/34
f 38/46/25 66/100/25 68/102/25
f 18/139/9 63/140/9 60/141/9
f 68/102/54 41/49/54 43/51/54
f 41/49/55 68/104/55 35/106/55
f 37/45/11 66/100/11 38/46/11
f 22/26/10 21/142/10 65/98/10
f 23/95/11 25/29/11 66/107/11
f 69/103/18 14/16/18 58/143/18
f 67/101/8 17/20/8 14/16/8
f 18/144/9 20/23/9 63/145/9
f 25/29/25 17/20/25 67/101/25
f 58/76/29 22/26/29 65/98/29
f 20/92/34 23/27/34 63/146/34
f 19/90/34 70/118/34 23/91/34
f 24/28/25 75/123/25 15/19/25
f 77/147/40 74/117/40 16/24/40
f 70/118/11 24/112/11 23/91/11
f 74/117/10 21/148/10 16/24/10
f 75/123/41 79/149/41 15/17/41
f 79/149/56 77/126/56 16/18/56
f 76/124/57 54/65/57 48/67/57
f 54/68/41 76/124/41 71/114/41
f 48/57/10 21/150/10 73/116/10
f 44/52/58 46/54/58 70/110/58
f 48/151/40 73/116/40 72/115/40
f 46/113/25 54/68/25 71/114/25
f 51/109/59 44/52/59 70/110/59
f 33/40/60 21/152/60 80/153/60
f 21/154/61 32/39/61 8/74/61
f 21/155/62 33/40/62 32/39/62
f 6/9/63 5/156/63 21/157/63
f 2/2/64 81/158/64 31/159/64
f 80/153/1 81/158/1 2/2/1
f 80/153/65 21/160/65 18/161/65
f 81/158/66 18/161/66 60/162/66
f 56/71/67 40/48/67 5/163/67
f 40/164/68 36/165/68 21/157/68
f 39/47/69 38/70/69 5/166/69
f 38/70/70 56/71/70 5/167/70
f 60/85/71 39/47/71 31/168/71
f 1/1/1 3/3/1 26/93/1
f 5/5/72 7/7/72 13/80/72
f 7/8/4 8/10/4 57/169/4
f 9/11/73 11/13/73 78/135/73
f 12/14/6 7/8/6 57/170/6
f 14/16/74 16/18/74 58/143/74
f 26/30/75 27/32/75 34/77/75
f 28/33/76 30/35/76 59/78/76
f 4/36/14 5/38/16 27/81/77
f 32/39/1 34/41/1 12/171/1
f 40/48/18 42/50/18 36/172/18
f 43/51/19 40/48/19 56/71/19
f 49/59/78 51/62/78 18/60/78
f 53/64/79 48/67/79 54/65/79
f 45/53/25 54/68/25 46/54/25
f 57/73/80 32/39/80 12/171/80
f 25/29/25 15/19/25 17/20/25
f 34/77/30 13/15/30 12/14/30
f 59/78/31 9/79/31 78/173/31
f 61/86/35 29/34/35 28/33/35
f 33/40/1 26/93/1 34/41/1
f 69/103/81 35/106/81 68/104/81
f 24/112/25 71/114/25 75/123/25
f 72/115/40 74/117/40 77/147/40
f 75/123/41 76/124/41 79/149/41
f 76/124/18 77/126/18 79/149/18
f 50/82/82 28/128/82 44/83/82
f 55/69/83 9/133/83 47/55/83
f 45/53/44 78/135/44 52/63/44
f 11/13/45 55/66/47 53/64/84
f 78/135/85 53/64/85 52/63/85
f 49/59/49 61/86/49 50/61/49
f 29/130/86 49/59/86 21/131/86
f 47/55/87 30/129/87 21/56/87
f 44/83/51 59/134/53 45/53/88
f 38/46/25 68/102/25 43/51/25
f 41/49/89 35/106/89 42/50/89
f 69/103/18 58/143/18 64/105/18
f 67/101/8 14/16/8 69/103/8
f 25/29/25 67/101/25 66/107/25
f 58/76/29 65/98/29 64/97/29
f 79/149/90 16/18/90 15/17/90
f 76/124/91 48/67/91 72/125/91
f 33/40/1 80/153/1 1/1/1
f 6/9/92 21/157/92 8/10/92
f 2/2/93 31/159/93 4/4/93
f 80/153/1 2/2/1 1/1/1
f 80/153/1 18/161/1 81/158/1
f 81/158/94 60/162/94 31/159/94
f 40/164/95 21/157/95 5/156/95
f 39/47/96 5/166/96 31/168/96
